<?xml version="1.0" encoding="UTF-8"?>
<svg version="1.1" viewBox="0 0 640 360" preserveAspectRatio="xMidYMid meet" xmlns="http://www.w3.org/2000/svg" xmlns:xlink="http://www.w3.org/1999/xlink" onload="initialize(evt)"><!--SVG SMIL Animation Export (c) 2015 Animatron LLC--><!--Version 1.0 by squared9--><defs><mask id="canvasMask"><rect x="0" y="0" width="640px" height="360px" fill="#FFFFFF" stroke="none"/></mask></defs><rect fill="#ffffff" stroke="none" x="0" y="0" width="640px" height="360px"/><g id="idff1cfd7c3a979fb5b2ac3f02" mask="url(#canvasMask)"><path id="idf3223d446e62546fbe1c89a4" d="M 267,201.5 C 304.565,201.5 343.341,205.5 380.997,205.5 " style="fill: none; stroke: #f46a0f; stroke-width: 2.0; stroke-opacity: 1.0" visibility="hidden"><set attributeName="visibility" attributeType="CSS" to="visible" begin="0s; loop.end" fill="none"/><animateTransform attributeName="transform" type="translate" additive="replace" begin="0s; loop.end" dur="10s" repeatCount="1" fill="none" from="324.0 203.5" to="324.0 203.5" calcMode="discrete"/><animateTransform attributeName="transform" type="translate" additive="sum" begin="0s; loop.end" dur="10s" repeatCount="1" fill="none" from="-324.0 -203.5" to="-324.0 -203.5" calcMode="discrete"/></path><path id="idb3a43f22410c08792789f0c1" d="M 383,204.5 C 383,185.416 385,164.794 385,146.504 " style="fill: none; stroke: #f46a0f; stroke-width: 2.0; stroke-opacity: 1.0" visibility="hidden"><set attributeName="visibility" attributeType="CSS" to="hidden" begin="0s; loop.end" dur="0.3" fill="none"/><set attributeName="visibility" attributeType="CSS" to="visible" begin="0.3s; loop.end + 0.3s" fill="none"/><animateTransform attributeName="transform" type="translate" additive="replace" begin="0.3s; loop.end + 0.3s" dur="9.7s" repeatCount="1" fill="none" from="384.0 175.5" to="384.0 175.5" calcMode="discrete"/><animateTransform attributeName="transform" type="translate" additive="sum" begin="0.3s; loop.end + 0.3s" dur="9.7s" repeatCount="1" fill="none" from="-384.0 -175.5" to="-384.0 -175.5" calcMode="discrete"/></path><path id="id92c9208b4d48a6fa46dcc006" d="M 381,144.5 C 356.08,136.194 317.977,139.5 291.504,139.5 C 289.37,139.5 266.005,136.732 266.005,139.5 " style="fill: none; stroke: #f46a0f; stroke-width: 2.0; stroke-opacity: 1.0" visibility="hidden"><set attributeName="visibility" attributeType="CSS" to="hidden" begin="0s; loop.end" dur="0.5" fill="none"/><set attributeName="visibility" attributeType="CSS" to="visible" begin="0.5s; loop.end + 0.5s" fill="none"/><animateTransform attributeName="transform" type="translate" additive="replace" begin="0.5s; loop.end + 0.5s" dur="9.5s" repeatCount="1" fill="none" from="323.5 141.384" to="323.5 141.384" calcMode="discrete"/><animateTransform attributeName="transform" type="translate" additive="sum" begin="0.5s; loop.end + 0.5s" dur="9.5s" repeatCount="1" fill="none" from="-323.5 -141.3848" to="-323.5 -141.3848" calcMode="discrete"/></path><path id="ide6b4d142a5d8582d4d5563ce" d="M 263,136.5 C 263,158.165 263,179.83 263,201.495 " style="fill: none; stroke: #f46a0f; stroke-width: 2.0; stroke-opacity: 1.0" visibility="hidden"><set attributeName="visibility" attributeType="CSS" to="hidden" begin="0s; loop.end" dur="0.7" fill="none"/><set attributeName="visibility" attributeType="CSS" to="visible" begin="0.7s; loop.end + 0.7s" fill="none"/><animateTransform attributeName="transform" type="translate" additive="replace" begin="0.7s; loop.end + 0.7s" dur="9.3s" repeatCount="1" fill="none" from="263.0 169.0" to="263.0 169.0" calcMode="discrete"/><animateTransform attributeName="transform" type="translate" additive="sum" begin="0.7s; loop.end + 0.7s" dur="9.3s" repeatCount="1" fill="none" from="-263.0 -169.0" to="-263.0 -169.0" calcMode="discrete"/></path><path id="id8d826194ef69b5831869a7c2" d="M 271,155.5 C 271,168.676 269.979,178.976 279,187.997 C 279,187.997 287.343,161.497 288.997,161.497 " style="fill: none; stroke: #f46a0f; stroke-width: 2.0; stroke-opacity: 1.0" visibility="hidden"><set attributeName="visibility" attributeType="CSS" to="hidden" begin="0s; loop.end" dur="1" fill="none"/><set attributeName="visibility" attributeType="CSS" to="visible" begin="1s; loop.end + 1s" fill="none"/><animateTransform attributeName="transform" type="translate" additive="replace" begin="1s; loop.end + 1s" dur="9s" repeatCount="1" fill="none" from="279.982 171.75" to="279.982 171.75" calcMode="discrete"/><animateTransform attributeName="transform" type="translate" additive="sum" begin="1s; loop.end + 1s" dur="9s" repeatCount="1" fill="none" from="-279.9826 -171.75" to="-279.9826 -171.75" calcMode="discrete"/></path><path id="idc7aae4beb1e3ca9838e3d66f" d="M 298,186.5 C 298,181.835 298,177.17 298,172.505 " style="fill: none; stroke: #f46a0f; stroke-width: 2.0; stroke-opacity: 1.0" visibility="hidden"><set attributeName="visibility" attributeType="CSS" to="hidden" begin="0s; loop.end" dur="1.3" fill="none"/><set attributeName="visibility" attributeType="CSS" to="visible" begin="1.3s; loop.end + 1.3s" fill="none"/><animateTransform attributeName="transform" type="translate" additive="replace" begin="1.3s; loop.end + 1.3s" dur="8.7s" repeatCount="1" fill="none" from="298.0 179.5" to="298.0 179.5" calcMode="discrete"/><animateTransform attributeName="transform" type="translate" additive="sum" begin="1.3s; loop.end + 1.3s" dur="8.7s" repeatCount="1" fill="none" from="-298.0 -179.5" to="-298.0 -179.5" calcMode="discrete"/></path><path id="idf77a1a3afaff67e0f25ddec8" d="M 302,159.5 C 295.972,167.034 303.414,167.983 302.001,159.498 " style="fill: none; stroke: #f46a0f; stroke-width: 2.0; stroke-opacity: 1.0" visibility="hidden"><set attributeName="visibility" attributeType="CSS" to="hidden" begin="0s; loop.end" dur="1.3" fill="none"/><set attributeName="visibility" attributeType="CSS" to="visible" begin="1.3s; loop.end + 1.3s" fill="none"/><animateTransform attributeName="transform" type="translate" additive="replace" begin="1.3s; loop.end + 1.3s" dur="8.7s" repeatCount="1" fill="none" from="300.895 162.506" to="300.895 162.506" calcMode="discrete"/><animateTransform attributeName="transform" type="translate" additive="sum" begin="1.3s; loop.end + 1.3s" dur="8.7s" repeatCount="1" fill="none" from="-300.8957 -162.5068" to="-300.8957 -162.5068" calcMode="discrete"/></path><path id="idc86966737e2fec7e035f1582" d="M 312,179.5 C 334.815,179.5 329.482,163.779 320.499,167.5 C 304.197,174.252 321.466,187.498 331.999,187.498 " style="fill: none; stroke: #f46a0f; stroke-width: 2.0; stroke-opacity: 1.0" visibility="hidden"><set attributeName="visibility" attributeType="CSS" to="hidden" begin="0s; loop.end" dur="1.6" fill="none"/><set attributeName="visibility" attributeType="CSS" to="visible" begin="1.6s; loop.end + 1.6s" fill="none"/><animateTransform attributeName="transform" type="translate" additive="replace" begin="1.6s; loop.end + 1.6s" dur="8.4s" repeatCount="1" fill="none" from="322.0 177.215" to="322.0 177.215" calcMode="discrete"/><animateTransform attributeName="transform" type="translate" additive="sum" begin="1.6s; loop.end + 1.6s" dur="8.4s" repeatCount="1" fill="none" from="-322.0 -177.2151" to="-322.0 -177.2151" calcMode="discrete"/></path><path id="id4f48e866e1a8a6a114788ce9" d="M 342,171.5 C 346.081,195.992 369.998,197.231 369.998,171.498 " style="fill: none; stroke: #f46a0f; stroke-width: 2.0; stroke-opacity: 1.0" visibility="hidden"><set attributeName="visibility" attributeType="CSS" to="hidden" begin="0s; loop.end" dur="2.1" fill="none"/><set attributeName="visibility" attributeType="CSS" to="visible" begin="2.1s; loop.end + 2.1s" fill="none"/><animateTransform attributeName="transform" type="translate" additive="replace" begin="2.1s; loop.end + 2.1s" dur="7.9s" repeatCount="1" fill="none" from="356.0 180.918" to="356.0 180.918" calcMode="discrete"/><animateTransform attributeName="transform" type="translate" additive="sum" begin="2.1s; loop.end + 2.1s" dur="7.9s" repeatCount="1" fill="none" from="-356.0 -180.9189" to="-356.0 -180.9189" calcMode="discrete"/></path><path id="id4916185e289b8be6eae6822f" d="M 357,175.5 C 357,176.832 352.9,190.497 356,190.497 " style="fill: none; stroke: #f46a0f; stroke-width: 2.0; stroke-opacity: 1.0" visibility="hidden"><set attributeName="visibility" attributeType="CSS" to="hidden" begin="0s; loop.end" dur="2.1" fill="none"/><set attributeName="visibility" attributeType="CSS" to="visible" begin="2.1s; loop.end + 2.1s" fill="none"/><animateTransform attributeName="transform" type="translate" additive="replace" begin="2.1s; loop.end + 2.1s" dur="7.9s" repeatCount="1" fill="none" from="355.92 183.0" to="355.92 183.0" calcMode="discrete"/><animateTransform attributeName="transform" type="translate" additive="sum" begin="2.1s; loop.end + 2.1s" dur="7.9s" repeatCount="1" fill="none" from="-355.9203 -183.0" to="-355.9203 -183.0" calcMode="discrete"/></path><path id="id7c3c16da1f392c116b2494ec" d="M 446,68.5 C 446,79.641 441.722,99.668 446,109.996 C 446.892,112.152 466.115,110.496 468.497,110.496 C 491.162,110.496 515.052,114.496 535.994,114.496 " style="fill: none; stroke: #f46a0f; stroke-width: 2.0; stroke-opacity: 1.0" visibility="hidden"><set attributeName="visibility" attributeType="CSS" to="hidden" begin="0s; loop.end" dur="2.4" fill="none"/><set attributeName="visibility" attributeType="CSS" to="visible" begin="2.4s; loop.end + 2.4s" fill="none"/><animateTransform attributeName="transform" type="translate" additive="replace" begin="2.4s; loop.end + 2.4s" dur="7.6s" repeatCount="1" fill="none" from="490.049 91.5" to="490.049 91.5" calcMode="discrete"/><animateTransform attributeName="transform" type="translate" additive="sum" begin="2.4s; loop.end + 2.4s" dur="7.6s" repeatCount="1" fill="none" from="-490.0493 -91.5" to="-490.0493 -91.5" calcMode="discrete"/></path><path id="id97884b307c792f17a7ab524f" d="M 535,112.5 C 535,110.413 531.627,66.502 537,66.502 " style="fill: none; stroke: #f46a0f; stroke-width: 2.0; stroke-opacity: 1.0" visibility="hidden"><set attributeName="visibility" attributeType="CSS" to="hidden" begin="0s; loop.end" dur="2.7" fill="none"/><set attributeName="visibility" attributeType="CSS" to="visible" begin="2.7s; loop.end + 2.7s" fill="none"/><animateTransform attributeName="transform" type="translate" additive="replace" begin="2.7s; loop.end + 2.7s" dur="7.3s" repeatCount="1" fill="none" from="535.477 89.5" to="535.477 89.5" calcMode="discrete"/><animateTransform attributeName="transform" type="translate" additive="sum" begin="2.7s; loop.end + 2.7s" dur="7.3s" repeatCount="1" fill="none" from="-535.4773 -89.5" to="-535.4773 -89.5" calcMode="discrete"/></path><path id="id4f48f059f969fcf3361cbc29" d="M 531,65.5 C 500.623,65.5 469.934,65.5 440.004,65.5 " style="fill: none; stroke: #f46a0f; stroke-width: 2.0; stroke-opacity: 1.0" visibility="hidden"><set attributeName="visibility" attributeType="CSS" to="hidden" begin="0s; loop.end" dur="3" fill="none"/><set attributeName="visibility" attributeType="CSS" to="visible" begin="3s; loop.end + 3s" fill="none"/><animateTransform attributeName="transform" type="translate" additive="replace" begin="3s; loop.end + 3s" dur="7s" repeatCount="1" fill="none" from="485.5 65.5" to="485.5 65.5" calcMode="discrete"/><animateTransform attributeName="transform" type="translate" additive="sum" begin="3s; loop.end + 3s" dur="7s" repeatCount="1" fill="none" from="-485.5 -65.5" to="-485.5 -65.5" calcMode="discrete"/></path><path id="id1be970563b8ffcdbecec2689" d="M 452,97.5 C 452,71.04 456.572,86.044 462.499,88.498 C 465.893,89.904 472.998,72.951 472.998,100.499 " style="fill: none; stroke: #f46a0f; stroke-width: 2.0; stroke-opacity: 1.0" visibility="hidden"><set attributeName="visibility" attributeType="CSS" to="hidden" begin="0s; loop.end" dur="3.3" fill="none"/><set attributeName="visibility" attributeType="CSS" to="visible" begin="3.3s; loop.end + 3.3s" fill="none"/><animateTransform attributeName="transform" type="translate" additive="replace" begin="3.3s; loop.end + 3.3s" dur="6.7s" repeatCount="1" fill="none" from="462.5 91.273" to="462.5 91.273" calcMode="discrete"/><animateTransform attributeName="transform" type="translate" additive="sum" begin="3.3s; loop.end + 3.3s" dur="6.7s" repeatCount="1" fill="none" from="-462.5 -91.2731" to="-462.5 -91.2731" calcMode="discrete"/></path><path id="id415ce0558828599b0129b780" d="M 487,86.5 C 479.988,86.5 473.498,100.183 481.502,103.497 C 489.153,106.665 495.087,87.497 481.001,87.497 " style="fill: none; stroke: #f46a0f; stroke-width: 2.0; stroke-opacity: 1.0" visibility="hidden"><set attributeName="visibility" attributeType="CSS" to="hidden" begin="0s; loop.end" dur="3.3" fill="none"/><set attributeName="visibility" attributeType="CSS" to="visible" begin="3.3s; loop.end + 3.3s" fill="none"/><animateTransform attributeName="transform" type="translate" additive="replace" begin="3.3s; loop.end + 3.3s" dur="6.7s" repeatCount="1" fill="none" from="483.667 95.176" to="483.667 95.176" calcMode="discrete"/><animateTransform attributeName="transform" type="translate" additive="sum" begin="3.3s; loop.end + 3.3s" dur="6.7s" repeatCount="1" fill="none" from="-483.6672 -95.1769" to="-483.6672 -95.1769" calcMode="discrete"/></path><path id="id3a077ce81644a61c0b129b3c" d="M 503,86.5 C 498.827,86.5 486.157,96.87 492.502,99.498 C 505.68,104.957 505.002,51.828 505.002,98.497 " style="fill: none; stroke: #f46a0f; stroke-width: 2.0; stroke-opacity: 1.0" visibility="hidden"><set attributeName="visibility" attributeType="CSS" to="hidden" begin="0s; loop.end" dur="3.5" fill="none"/><set attributeName="visibility" attributeType="CSS" to="visible" begin="3.5s; loop.end + 3.5s" fill="none"/><animateTransform attributeName="transform" type="translate" additive="replace" begin="3.5s; loop.end + 3.5s" dur="6.5s" repeatCount="1" fill="none" from="497.879 89.524" to="497.879 89.524" calcMode="discrete"/><animateTransform attributeName="transform" type="translate" additive="sum" begin="3.5s; loop.end + 3.5s" dur="6.5s" repeatCount="1" fill="none" from="-497.8795 -89.5249" to="-497.8795 -89.5249" calcMode="discrete"/></path><path id="id74fcf6f6788b3241f971cf21" d="M 511,94.5 C 519.419,90.291 520.904,79.778 509.498,84.502 C 503.633,86.932 514.425,99.501 519.997,99.501 " style="fill: none; stroke: #f46a0f; stroke-width: 2.0; stroke-opacity: 1.0" visibility="hidden"><set attributeName="visibility" attributeType="CSS" to="hidden" begin="0s; loop.end" dur="3.9" fill="none"/><set attributeName="visibility" attributeType="CSS" to="visible" begin="3.9s; loop.end + 3.9s" fill="none"/><animateTransform attributeName="transform" type="translate" additive="replace" begin="3.9s; loop.end + 3.9s" dur="6.1s" repeatCount="1" fill="none" from="513.9 91.402" to="513.9 91.402" calcMode="discrete"/><animateTransform attributeName="transform" type="translate" additive="sum" begin="3.9s; loop.end + 3.9s" dur="6.1s" repeatCount="1" fill="none" from="-513.9019 -91.402" to="-513.9019 -91.402" calcMode="discrete"/></path><path id="idf8abb5cb4fb3bee997040ee0" d="M 525,71.5 C 525,81.346 526,91.374 526,101.497 " style="fill: none; stroke: #f46a0f; stroke-width: 2.0; stroke-opacity: 1.0" visibility="hidden"><set attributeName="visibility" attributeType="CSS" to="hidden" begin="0s; loop.end" dur="4.2" fill="none"/><set attributeName="visibility" attributeType="CSS" to="visible" begin="4.2s; loop.end + 4.2s" fill="none"/><animateTransform attributeName="transform" type="translate" additive="replace" begin="4.2s; loop.end + 4.2s" dur="5.8s" repeatCount="1" fill="none" from="525.5 86.5" to="525.5 86.5" calcMode="discrete"/><animateTransform attributeName="transform" type="translate" additive="sum" begin="4.2s; loop.end + 4.2s" dur="5.8s" repeatCount="1" fill="none" from="-525.5 -86.5" to="-525.5 -86.5" calcMode="discrete"/></path><path id="ide0d353fa48368c0beacbf63c" d="M 348,137.5 C 348,128.302 359.567,121.997 366.497,117.002 C 392.09,98.557 412.4,77.505 445.994,77.505 " style="fill: none; stroke: #f46a0f; stroke-width: 2.0; stroke-opacity: 1.0" visibility="hidden"><set attributeName="visibility" attributeType="CSS" to="hidden" begin="0s; loop.end" dur="4.5" fill="none"/><set attributeName="visibility" attributeType="CSS" to="visible" begin="4.5s; loop.end + 4.5s" fill="none"/><animateTransform attributeName="transform" type="translate" additive="replace" begin="4.5s; loop.end + 4.5s" dur="5.5s" repeatCount="1" fill="none" from="397.0 107.5" to="397.0 107.5" calcMode="discrete"/><animateTransform attributeName="transform" type="translate" additive="sum" begin="4.5s; loop.end + 4.5s" dur="5.5s" repeatCount="1" fill="none" from="-397.0 -107.5" to="-397.0 -107.5" calcMode="discrete"/></path><path id="idf2027e8835fef2aba33e9c4d" d="M 428,69.5 C 434.014,74.655 451.788,91.498 430.998,91.498 " style="fill: none; stroke: #f46a0f; stroke-width: 2.0; stroke-opacity: 1.0" visibility="hidden"><set attributeName="visibility" attributeType="CSS" to="hidden" begin="0s; loop.end" dur="4.8" fill="none"/><set attributeName="visibility" attributeType="CSS" to="visible" begin="4.8s; loop.end + 4.8s" fill="none"/><animateTransform attributeName="transform" type="translate" additive="replace" begin="4.8s; loop.end + 4.8s" dur="5.2s" repeatCount="1" fill="none" from="434.407 80.5" to="434.407 80.5" calcMode="discrete"/><animateTransform attributeName="transform" type="translate" additive="sum" begin="4.8s; loop.end + 4.8s" dur="5.2s" repeatCount="1" fill="none" from="-434.4073 -80.5" to="-434.4073 -80.5" calcMode="discrete"/></path><path id="idd13b4fb1cd41e928ac68310e" d="M 470,112.5 C 470,151.663 448.971,165.753 414.503,175.999 C 404.083,179.096 384.867,183.86 376.507,175.5 C 376.507,175.5 376.507,175.5 376.507,175.5 C 390.401,170.869 381.007,174.39 381.007,192.499 " style="fill: none; stroke: #f46a0f; stroke-width: 2.0; stroke-opacity: 1.0" visibility="hidden"><set attributeName="visibility" attributeType="CSS" to="hidden" begin="0s; loop.end" dur="5.2" fill="none"/><set attributeName="visibility" attributeType="CSS" to="visible" begin="5.2s; loop.end + 5.2s" fill="none"/><animateTransform attributeName="transform" type="translate" additive="replace" begin="5.2s; loop.end + 5.2s" dur="4.8s" repeatCount="1" fill="none" from="423.25 152.5" to="423.25 152.5" calcMode="discrete"/><animateTransform attributeName="transform" type="translate" additive="sum" begin="5.2s; loop.end + 5.2s" dur="4.8s" repeatCount="1" fill="none" from="-423.25 -152.5" to="-423.25 -152.5" calcMode="discrete"/></path><path id="idc141e4d2ba1f46e234ac5e87" d="M 495,115.5 C 495,196.56 450.572,197.498 388.001,197.498 " style="fill: none; stroke: #f46a0f; stroke-width: 2.0; stroke-opacity: 1.0" visibility="hidden"><set attributeName="visibility" attributeType="CSS" to="hidden" begin="0s; loop.end" dur="5.5" fill="none"/><set attributeName="visibility" attributeType="CSS" to="visible" begin="5.5s; loop.end + 5.5s" fill="none"/><animateTransform attributeName="transform" type="translate" additive="replace" begin="5.5s; loop.end + 5.5s" dur="4.5s" repeatCount="1" fill="none" from="441.5 156.5" to="441.5 156.5" calcMode="discrete"/><animateTransform attributeName="transform" type="translate" additive="sum" begin="5.5s; loop.end + 5.5s" dur="4.5s" repeatCount="1" fill="none" from="-441.5 -156.5" to="-441.5 -156.5" calcMode="discrete"/></path><path id="id0eb0f2f258b12fd9c23a5e3a" d="M 397,215.5 C 396.253,211.01 384.513,195.186 385.003,194.004 C 386.207,191.097 395.002,188.344 395.002,186.508 " style="fill: none; stroke: #f46a0f; stroke-width: 2.0; stroke-opacity: 1.0" visibility="hidden"><set attributeName="visibility" attributeType="CSS" to="hidden" begin="0s; loop.end" dur="5.5" fill="none"/><set attributeName="visibility" attributeType="CSS" to="visible" begin="5.5s; loop.end + 5.5s" fill="none"/><animateTransform attributeName="transform" type="translate" additive="replace" begin="5.5s; loop.end + 5.5s" dur="4.5s" repeatCount="1" fill="none" from="390.992 201.0" to="390.992 201.0" calcMode="discrete"/><animateTransform attributeName="transform" type="translate" additive="sum" begin="5.5s; loop.end + 5.5s" dur="4.5s" repeatCount="1" fill="none" from="-390.9926 -201.0" to="-390.9926 -201.0" calcMode="discrete"/></path><path id="id26d291934361ffc3ee9a57ac" d="M 52,237.5 C 52.156,237.717 47.556,293.915 48.498,294.496 C 52.214,296.793 67.427,290.822 71.994,290.498 C 93.557,288.967 115.859,290.498 137.491,290.498 C 138.908,290.498 155.989,291.998 155.989,291.998 C 158.252,286.535 164.045,249.381 160.989,242.002 C 159.916,239.411 133.963,241.502 130.49,241.502 C 103.046,241.502 76.207,234.502 49.492,234.502 C 49.492,234.502 51.083,236.248 51.989,237.5 " style="fill: none; stroke: #f46a0f; stroke-width: 2.0; stroke-opacity: 1.0" visibility="hidden"><set attributeName="visibility" attributeType="CSS" to="hidden" begin="0s; loop.end" dur="5.8" fill="none"/><set attributeName="visibility" attributeType="CSS" to="visible" begin="5.8s; loop.end + 5.8s" fill="none"/><animateTransform attributeName="transform" type="translate" additive="replace" begin="5.8s; loop.end + 5.8s" dur="4.2s" repeatCount="1" fill="none" from="105.121 264.762" to="105.121 264.762" calcMode="discrete"/><animateTransform attributeName="transform" type="translate" additive="sum" begin="5.8s; loop.end + 5.8s" dur="4.2s" repeatCount="1" fill="none" from="-105.1219 -264.7623" to="-105.1219 -264.7623" calcMode="discrete"/></path><path id="id7d6963f4b8c1413a3f771cd1" d="M 57,273.5 C 57,273.5 68,258.5 68,258.5 " style="fill: none; stroke: #f46a0f; stroke-width: 2.0; stroke-opacity: 1.0" visibility="hidden"><set attributeName="visibility" attributeType="CSS" to="hidden" begin="0s; loop.end" dur="5.8" fill="none"/><set attributeName="visibility" attributeType="CSS" to="visible" begin="5.8s; loop.end + 5.8s" fill="none"/><animateTransform attributeName="transform" type="translate" additive="replace" begin="5.8s; loop.end + 5.8s" dur="4.2s" repeatCount="1" fill="none" from="62.5 266.0" to="62.5 266.0" calcMode="discrete"/><animateTransform attributeName="transform" type="translate" additive="sum" begin="5.8s; loop.end + 5.8s" dur="4.2s" repeatCount="1" fill="none" from="-62.5 -266.0" to="-62.5 -266.0" calcMode="discrete"/></path><path id="id30bdcc5afe598c1283ff71d0" d="M 67,259.5 C 67,259.5 72,272 72,272 C 79.71,256.577 84.997,250.826 84.997,272.5 " style="fill: none; stroke: #f46a0f; stroke-width: 2.0; stroke-opacity: 1.0" visibility="hidden"><set attributeName="visibility" attributeType="CSS" to="hidden" begin="0s; loop.end" dur="5.8" fill="none"/><set attributeName="visibility" attributeType="CSS" to="visible" begin="5.8s; loop.end + 5.8s" fill="none"/><animateTransform attributeName="transform" type="translate" additive="replace" begin="5.8s; loop.end + 5.8s" dur="4.2s" repeatCount="1" fill="none" from="76.0 265.384" to="76.0 265.384" calcMode="discrete"/><animateTransform attributeName="transform" type="translate" additive="sum" begin="5.8s; loop.end + 5.8s" dur="4.2s" repeatCount="1" fill="none" from="-76.0 -265.3843" to="-76.0 -265.3843" calcMode="discrete"/></path><path id="id6381bf9ac404fa82b7267b29" d="M 101,262.5 C 100.306,263.889 90.568,280.942 100.001,278.498 C 109.379,276.068 106.107,264.499 96.003,264.499 " style="fill: none; stroke: #f46a0f; stroke-width: 2.0; stroke-opacity: 1.0" visibility="hidden"><set attributeName="visibility" attributeType="CSS" to="hidden" begin="0s; loop.end" dur="5.8" fill="none"/><set attributeName="visibility" attributeType="CSS" to="visible" begin="5.8s; loop.end + 5.8s" fill="none"/><animateTransform attributeName="transform" type="translate" additive="replace" begin="5.8s; loop.end + 5.8s" dur="4.2s" repeatCount="1" fill="none" from="100.732 270.619" to="100.732 270.619" calcMode="discrete"/><animateTransform attributeName="transform" type="translate" additive="sum" begin="5.8s; loop.end + 5.8s" dur="4.2s" repeatCount="1" fill="none" from="-100.7325 -270.6197" to="-100.7325 -270.6197" calcMode="discrete"/></path><path id="id21eac2f40123e1b4cd170de1" d="M 118,265.5 C 105.892,265.5 106.265,278.444 114.5,276.5 C 114.5,276.5 138.553,227.636 121.999,264.5 C 120.881,266.992 119.002,271.492 119.002,274.499 " style="fill: none; stroke: #f46a0f; stroke-width: 2.0; stroke-opacity: 1.0" visibility="hidden"><set attributeName="visibility" attributeType="CSS" to="hidden" begin="0s; loop.end" dur="5.8" fill="none"/><set attributeName="visibility" attributeType="CSS" to="visible" begin="5.8s; loop.end + 5.8s" fill="none"/><animateTransform attributeName="transform" type="translate" additive="replace" begin="5.8s; loop.end + 5.8s" dur="4.2s" repeatCount="1" fill="none" from="118.195 263.718" to="118.195 263.718" calcMode="discrete"/><animateTransform attributeName="transform" type="translate" additive="sum" begin="5.8s; loop.end + 5.8s" dur="4.2s" repeatCount="1" fill="none" from="-118.1951 -263.7182" to="-118.1951 -263.7182" calcMode="discrete"/></path><path id="id65e55ee839e26c993c39900e" d="M 127,270.5 C 137.199,268.647 137.546,259.169 129.501,262.502 C 124.372,264.627 127.373,275.501 135,275.501 " style="fill: none; stroke: #f46a0f; stroke-width: 2.0; stroke-opacity: 1.0" visibility="hidden"><set attributeName="visibility" attributeType="CSS" to="hidden" begin="0s; loop.end" dur="5.8" fill="none"/><set attributeName="visibility" attributeType="CSS" to="visible" begin="5.8s; loop.end + 5.8s" fill="none"/><animateTransform attributeName="transform" type="translate" additive="replace" begin="5.8s; loop.end + 5.8s" dur="4.2s" repeatCount="1" fill="none" from="131.041 268.647" to="131.041 268.647" calcMode="discrete"/><animateTransform attributeName="transform" type="translate" additive="sum" begin="5.8s; loop.end + 5.8s" dur="4.2s" repeatCount="1" fill="none" from="-131.0418 -268.6479" to="-131.0418 -268.6479" calcMode="discrete"/></path><path id="id0e914bcb2f9c3e7fbdda91ca" d="M 148,253.5 C 148,262.499 148,271.499 148,280.498 " style="fill: none; stroke: #f46a0f; stroke-width: 2.0; stroke-opacity: 1.0" visibility="hidden"><set attributeName="visibility" attributeType="CSS" to="hidden" begin="0s; loop.end" dur="5.8" fill="none"/><set attributeName="visibility" attributeType="CSS" to="visible" begin="5.8s; loop.end + 5.8s" fill="none"/><animateTransform attributeName="transform" type="translate" additive="replace" begin="5.8s; loop.end + 5.8s" dur="4.2s" repeatCount="1" fill="none" from="148.0 267.0" to="148.0 267.0" calcMode="discrete"/><animateTransform attributeName="transform" type="translate" additive="sum" begin="5.8s; loop.end + 5.8s" dur="4.2s" repeatCount="1" fill="none" from="-148.0 -267.0" to="-148.0 -267.0" calcMode="discrete"/></path><path id="idaa6d6f6f175f372f89ec7a67" d="M 257,164.5 C 257,164.5 210.5,164.5 210.5,164.5 C 180.96,164.655 99.002,177.405 99.002,227.497 " style="fill: none; stroke: #f46a0f; stroke-width: 2.0; stroke-opacity: 1.0" visibility="hidden"><set attributeName="visibility" attributeType="CSS" to="hidden" begin="0s; loop.end" dur="6.1" fill="none"/><set attributeName="visibility" attributeType="CSS" to="visible" begin="6.1s; loop.end + 6.1s" fill="none"/><animateTransform attributeName="transform" type="translate" additive="replace" begin="6.1s; loop.end + 6.1s" dur="3.9000000000000004s" repeatCount="1" fill="none" from="178.0 196.0" to="178.0 196.0" calcMode="discrete"/><animateTransform attributeName="transform" type="translate" additive="sum" begin="6.1s; loop.end + 6.1s" dur="3.9000000000000004s" repeatCount="1" fill="none" from="-178.0 -196.0" to="-178.0 -196.0" calcMode="discrete"/></path><path id="id24271d41e8e825abb0bf028b" d="M 88,215.5 C 88,215.5 88,215 88,215 C 88.614,218.689 89.598,222.013 90.997,225.497 C 102.727,254.714 100.622,223.498 116.995,223.498 " style="fill: none; stroke: #f46a0f; stroke-width: 2.0; stroke-opacity: 1.0" visibility="hidden"><set attributeName="visibility" attributeType="CSS" to="hidden" begin="0s; loop.end" dur="6.1" fill="none"/><set attributeName="visibility" attributeType="CSS" to="visible" begin="6.1s; loop.end + 6.1s" fill="none"/><animateTransform attributeName="transform" type="translate" additive="replace" begin="6.1s; loop.end + 6.1s" dur="3.9000000000000004s" repeatCount="1" fill="none" from="102.5 226.493" to="102.5 226.493" calcMode="discrete"/><animateTransform attributeName="transform" type="translate" additive="sum" begin="6.1s; loop.end + 6.1s" dur="3.9000000000000004s" repeatCount="1" fill="none" from="-102.5 -226.4933" to="-102.5 -226.4933" calcMode="discrete"/></path><path id="iddbb7fd69e2f48c8361ff2429" d="M 164,269.5 C 178.604,273.672 190.47,283.604 205.496,286.496 C 249.121,294.897 326.994,256.179 326.994,207.497 " style="fill: none; stroke: #f46a0f; stroke-width: 2.0; stroke-opacity: 1.0" visibility="hidden"><set attributeName="visibility" attributeType="CSS" to="hidden" begin="0s; loop.end" dur="6.6" fill="none"/><set attributeName="visibility" attributeType="CSS" to="visible" begin="6.6s; loop.end + 6.6s" fill="none"/><animateTransform attributeName="transform" type="translate" additive="replace" begin="6.6s; loop.end + 6.6s" dur="3.4000000000000004s" repeatCount="1" fill="none" from="245.5 247.575" to="245.5 247.575" calcMode="discrete"/><animateTransform attributeName="transform" type="translate" additive="sum" begin="6.6s; loop.end + 6.6s" dur="3.4000000000000004s" repeatCount="1" fill="none" from="-245.5 -247.5757" to="-245.5 -247.5757" calcMode="discrete"/></path><path id="id642577bbc9be1e0e81ce5bda" d="M 313,214.5 C 324.673,214.5 338.997,197.613 338.997,222.5 " style="fill: none; stroke: #f46a0f; stroke-width: 2.0; stroke-opacity: 1.0" visibility="hidden"><set attributeName="visibility" attributeType="CSS" to="hidden" begin="0s; loop.end" dur="6.9" fill="none"/><set attributeName="visibility" attributeType="CSS" to="visible" begin="6.9s; loop.end + 6.9s" fill="none"/><animateTransform attributeName="transform" type="translate" additive="replace" begin="6.9s; loop.end + 6.9s" dur="3.0999999999999996s" repeatCount="1" fill="none" from="326.0 215.701" to="326.0 215.701" calcMode="discrete"/><animateTransform attributeName="transform" type="translate" additive="sum" begin="6.9s; loop.end + 6.9s" dur="3.0999999999999996s" repeatCount="1" fill="none" from="-326.0 -215.701" to="-326.0 -215.701" calcMode="discrete"/></path><g id="id368788e50adc98f27da1be3e" visibility="hidden"><set attributeName="visibility" attributeType="CSS" to="visible" begin="0s; loop.end" fill="none"/><animateTransform attributeName="transform" type="translate" additive="replace" begin="0s; loop.end" dur="10s" repeatCount="1" fill="none" from="5.0 330.203" to="5.0 330.203" calcMode="discrete"/><animateTransform attributeName="transform" type="scale" additive="sum" begin="0s; loop.end" dur="10s" repeatCount="1" fill="none" from="1.0 1.0" to="1.0 1.0" calcMode="discrete"/><animateTransform attributeName="transform" type="translate" additive="sum" begin="0s; loop.end" dur="10s" repeatCount="1" fill="none" from="-0.0 -0.0" to="-0.0 -0.0" calcMode="discrete"/><g id="idc16e9ce65f360c4aba997d6a" visibility="hidden"><set attributeName="visibility" attributeType="CSS" to="visible" begin="0s; loop.end" fill="none"/><animateTransform attributeName="transform" type="translate" additive="replace" begin="0s; loop.end" dur="10s" repeatCount="1" fill="none" from="0.0 0.0" to="0.0 0.0" calcMode="discrete"/><animateTransform attributeName="transform" type="translate" additive="sum" begin="0s; loop.end" dur="10s" repeatCount="1" fill="none" from="70.498 12.399" to="70.498 12.399" calcMode="discrete"/><g id="idaa1b715cb3107f9e32ae1e67" visibility="hidden"><set attributeName="visibility" attributeType="CSS" to="visible" begin="0s; loop.end" fill="none"/><animateTransform attributeName="transform" type="translate" additive="replace" begin="0s; loop.end" dur="10s" repeatCount="1" fill="none" from="-58.1 0.0" to="-58.1 0.0" calcMode="discrete"/><animateTransform attributeName="transform" type="translate" additive="sum" begin="0s; loop.end" dur="10s" repeatCount="1" fill="none" from="-0.0 -0.0" to="-0.0 -0.0" calcMode="discrete"/><path id="id4528297aa8237a63620583ff" d="M 23.5,12.5 C 23.5,18.684 18.531,23.697 12.402,23.697 C 6.272,23.697 1.303,18.685 1.303,12.501 C 1.303,6.316 6.272,1.302 12.402,1.302 C 18.531,1.302 23.5,6.316 23.5,12.501 L 23.5,12.501 M 23.5,12.501 " style="fill: #38393a; fill-opacity: 1.0; stroke: none" visibility="hidden"><set attributeName="visibility" attributeType="CSS" to="visible" begin="0s; loop.end" fill="none"/><animateTransform attributeName="transform" type="translate" additive="replace" begin="0s; loop.end" dur="10s" repeatCount="1" fill="none" from="0.002 0.101" to="0.002 0.101" calcMode="discrete"/><animateTransform attributeName="transform" type="translate" additive="sum" begin="0s; loop.end" dur="10s" repeatCount="1" fill="none" from="-12.401 -12.5" to="-12.401 -12.5" calcMode="discrete"/></path><g id="idf3647a9a4dabda9d6f28ce0b" visibility="hidden"><set attributeName="visibility" attributeType="CSS" to="visible" begin="0s; loop.end" fill="none"/><animateTransform attributeName="transform" type="translate" additive="replace" begin="0s; loop.end" dur="10s" repeatCount="1" fill="none" from="0.0 0.0" to="0.0 0.0" calcMode="discrete"/><animateTransform attributeName="transform" type="translate" additive="sum" begin="0s; loop.end" dur="10s" repeatCount="1" fill="none" from="-0.0 -0.0" to="-0.0 -0.0" calcMode="discrete"/><path id="id72541490ef44ae20085f62ac" d="M 12.399,0.5 C 5.8,0.5 0.5,5.8 0.5,12.399 C 0.5,18.999 5.8,24.297 12.399,24.297 C 18.999,24.297 24.296,18.999 24.296,12.399 C 24.296,5.799 18.897,0.5 12.397,0.5 L 12.397,0.5 M 18.296,16 C 17.696,17 16.997,18.1 16.798,18.397 L 16.798,18.497 L 16.698,18.497 C 16.299,18.696 14.899,19.095 14.201,19.095 C 14.201,19.095 14.102,19.095 14.102,19.095 L 14.003,19.095 C 13.203,18.798 11.403,18.198 10.804,17.999 C 9.804,18.398 8.804,18.898 7.804,19.398 C 7.304,19.597 6.904,19.894 6.404,20.093 C 6.404,20.093 6.404,20.093 6.404,20.093 C 6.404,20.093 5.404,20.693 5.204,20.693 L 4.905,20.693 L 4.905,20.396 C 4.905,19.796 5.004,18.397 5.103,18.1 C 6.401,4.1 11.6,2.902 11.798,2.802 C 11.996,2.802 12.296,2.703 12.494,2.703 L 12.593,2.703 C 12.692,2.703 12.692,2.703 12.791,2.703 C 17.09,2.703 21.289,13.703 21.488,14.203 C 21.588,14.401 21.787,15.099 21.887,15.198 L 21.987,15.498 L 18.289,15.997 L 18.289,15.997 M 12.39,0.497 " style="fill: #ffbc00; fill-opacity: 1.0; stroke: none" visibility="hidden"><set attributeName="visibility" attributeType="CSS" to="visible" begin="0s; loop.end" fill="none"/><animateTransform attributeName="transform" type="translate" additive="replace" begin="0s; loop.end" dur="10s" repeatCount="1" fill="none" from="0.0 0.0" to="0.0 0.0" calcMode="discrete"/><animateTransform attributeName="transform" type="translate" additive="sum" begin="0s; loop.end" dur="10s" repeatCount="1" fill="none" from="-12.399 -12.3985" to="-12.399 -12.3985" calcMode="discrete"/></path><path id="id63a8a0bb3f8b9ebebe54cbcc" d="M 13.899,7.8 C 13.201,7.8 12.602,7.501 12.602,7.501 L 11.503,7.001 L 12.701,7.001 C 13.099,7.001 13.297,6.803 13.495,6.504 C 13.693,6.205 13.594,5.906 13.495,5.706 C 13.195,5.206 12.895,5.008 12.498,5.008 C 11.498,5.008 10.399,6.107 9.899,6.706 C 9.3,7.606 8.8,8.705 8.403,10.005 C 9.601,9.406 11.899,8.507 15.798,7.809 L 15.996,7.809 L 16.694,9.809 L 16.397,9.908 C 10.797,10.908 8.198,12.606 7.599,13.003 C 7.3,14.303 7.102,15.803 6.904,17.3 L 10.303,16.101 L 12.303,16.8 C 13.103,17.097 13.603,17.197 14.002,17.396 C 14.601,17.396 15.799,17.099 16.198,16.9 C 16.397,16.603 17.397,15.103 17.796,14.303 L 17.896,14.204 L 17.996,14.204 C 18.695,14.105 19.294,14.006 19.693,14.006 C 18.994,11.907 17.395,8.407 15.995,6.507 C 15.495,7.606 14.495,7.806 13.896,7.806 L 13.896,7.806 M 16.395,13.305 C 15.895,14.404 14.296,15.003 13.098,15.003 C 12.499,15.003 11.999,14.805 11.602,14.607 L 11.404,14.508 L 12.204,13.008 L 12.504,13.206 C 12.603,13.305 12.901,13.404 13.201,13.404 C 14.001,13.404 14.801,13.005 14.9,12.705 L 14.999,12.405 L 16.596,13.103 L 16.397,13.301 L 16.397,13.301 M 13.897,7.801 " style="fill: #ffbc00; fill-opacity: 1.0; stroke: none" visibility="hidden"><set attributeName="visibility" attributeType="CSS" to="visible" begin="0s; loop.end" fill="none"/><animateTransform attributeName="transform" type="translate" additive="replace" begin="0s; loop.end" dur="10s" repeatCount="1" fill="none" from="0.898 -1.198" to="0.898 -1.198" calcMode="discrete"/><animateTransform attributeName="transform" type="translate" additive="sum" begin="0s; loop.end" dur="10s" repeatCount="1" fill="none" from="-13.297 -11.2005" to="-13.297 -11.2005" calcMode="discrete"/></path></g></g><g id="id8d6a19d27958e753854c2f28" visibility="hidden"><set attributeName="visibility" attributeType="CSS" to="visible" begin="0s; loop.end" fill="none"/><animateTransform attributeName="transform" type="translate" additive="replace" begin="0s; loop.end" dur="10s" repeatCount="1" fill="none" from="14.495 -0.044" to="14.495 -0.044" calcMode="discrete"/><animateTransform attributeName="transform" type="translate" additive="sum" begin="0s; loop.end" dur="10s" repeatCount="1" fill="none" from="-0.0 -0.0" to="-0.0 -0.0" calcMode="discrete"/><path id="ide711f2cf42101667d8529e49" d="M 123.5,7.5 L 116.5,7.5 C 115,7.5 113.803,8.599 113.803,9.996 L 113.803,14.596 C 113.803,15.993 115,17.091 116.5,17.091 L 123.5,17.091 C 125,17.091 126.197,15.992 126.197,14.595 L 126.197,9.995 C 126.197,8.695 125,7.497 123.5,7.497 L 123.5,7.497 M 123.303,13.997 C 123.303,14.497 122.903,14.797 122.403,14.797 L 117.503,14.797 C 117.003,14.797 116.603,14.4 116.603,14 L 116.603,10.603 C 116.603,10.103 117.003,9.706 117.503,9.706 L 122.403,9.706 C 122.903,9.706 123.303,10.105 123.303,10.605 L 123.303,14.004 L 123.303,14.004 M 138,7.604 L 138,14.004 L 133.101,8.504 C 132.503,7.705 131.503,7.606 131.204,7.507 L 131.204,7.507 L 128.204,7.507 L 128.204,17.007 L 131.204,17.007 L 131.204,10.608 C 132.103,11.608 135.302,15.307 136.201,16.106 C 137.4,17.106 138.099,17.106 138.099,17.106 L 138.099,17.106 L 140.998,17.106 L 140.998,7.606 L 137.998,7.606 L 137.998,7.606 M 52.399,14.106 L 47.5,8.606 C 46.903,7.807 45.903,7.708 45.605,7.609 L 45.605,7.609 L 42.605,7.609 L 42.605,17.109 L 45.605,17.109 L 45.605,10.71 C 46.504,11.71 49.702,15.409 50.601,16.208 C 51.801,17.208 52.501,17.208 52.501,17.208 L 52.501,17.208 L 55.4,17.208 L 55.4,7.608 L 52.4,7.608 L 52.4,14.108 L 52.4,14.108 M 57.299,17.107 L 60.299,17.107 L 60.299,7.607 L 57.299,7.607 L 57.299,17.107 L 57.299,17.107 M 89.097,9.908 L 92.997,9.908 L 92.997,17.107 L 95.997,17.107 L 95.997,9.908 L 99.796,9.908 L 99.796,7.61 L 89.096,7.61 L 89.096,9.908 L 89.096,9.908 M 112.195,10.507 C 112.392,10.207 112.592,10.108 112.691,9.708 C 112.99,8.408 111.09,7.71 110.291,7.71 L 108.492,7.71 L 103.893,7.71 L 103.893,7.71 L 100.893,7.71 L 100.893,7.71 L 100.893,10.01 L 100.893,17.208 L 103.893,17.208 L 103.893,9.908 L 108.992,9.908 L 106.193,13.007 L 109.89,17.107 L 113.587,17.107 L 109.89,13.007 L 112.189,10.507 L 112.189,10.507 M 82.689,7.607 L 82.689,7.607 L 82.689,7.607 L 77.689,17.107 L 80.886,17.207 L 84.286,10.707 L 87.686,17.207 L 90.883,17.107 L 85.883,7.607 L 82.686,7.607 L 82.686,7.607 M 33.987,7.607 L 33.987,7.607 L 33.987,7.607 L 28.987,17.107 L 32.187,17.207 L 35.586,10.707 L 38.985,17.207 L 42.185,17.107 L 37.185,7.607 L 33.985,7.607 L 33.985,7.607 M 74.384,7.607 L 74.384,7.607 C 74.085,7.607 73.388,7.706 72.888,8.404 L 69.789,13.103 L 66.69,8.404 C 66.29,7.706 65.593,7.607 65.294,7.607 L 65.294,7.607 L 62.294,7.607 L 62.294,17.106 L 65.294,17.106 L 65.294,10.907 L 69.194,17.106 L 69.694,17.106 L 69.793,17.106 L 70.293,17.106 L 74.293,10.806 L 74.293,17.106 L 77.293,17.106 L 77.293,7.607 L 74.494,7.607 C 74.593,7.607 74.593,7.607 74.396,7.607 L 74.396,7.607 M 123.494,7.508 " style="fill: #ffffff; fill-opacity: 1.0; stroke: none" visibility="hidden"><set attributeName="visibility" attributeType="CSS" to="visible" begin="0s; loop.end" fill="none"/><animateTransform attributeName="transform" type="translate" additive="replace" begin="0s; loop.end" dur="10s" repeatCount="1" fill="none" from="0.0 0.0" to="0.0 0.0" calcMode="discrete"/><animateTransform attributeName="transform" type="translate" additive="sum" begin="0s; loop.end" dur="10s" repeatCount="1" fill="none" from="-84.9945 -12.3535" to="-84.9945 -12.3535" calcMode="discrete"/></path><path id="id5069cd8c2cfb86082494b7a3" d="M 123.5,7.5 L 116.5,7.5 C 115,7.5 113.803,8.599 113.803,9.996 L 113.803,14.596 C 113.803,15.993 115,17.091 116.5,17.091 L 123.5,17.091 C 125,17.091 126.197,15.992 126.197,14.595 L 126.197,9.995 C 126.197,8.695 125,7.497 123.5,7.497 L 123.5,7.497 M 123.303,13.997 C 123.303,14.497 122.903,14.797 122.403,14.797 L 117.503,14.797 C 117.003,14.797 116.603,14.4 116.603,14 L 116.603,10.603 C 116.603,10.103 117.003,9.706 117.503,9.706 L 122.403,9.706 C 122.903,9.706 123.303,10.105 123.303,10.605 L 123.303,14.004 L 123.303,14.004 M 138,7.604 L 138,14.004 L 133.101,8.504 C 132.503,7.705 131.503,7.606 131.204,7.507 L 131.204,7.507 L 128.204,7.507 L 128.204,17.007 L 131.204,17.007 L 131.204,10.608 C 132.103,11.608 135.302,15.307 136.201,16.106 C 137.4,17.106 138.099,17.106 138.099,17.106 L 138.099,17.106 L 140.998,17.106 L 140.998,7.606 L 137.998,7.606 L 137.998,7.606 M 52.399,14.106 L 47.5,8.606 C 46.903,7.807 45.903,7.708 45.605,7.609 L 45.605,7.609 L 42.605,7.609 L 42.605,17.109 L 45.605,17.109 L 45.605,10.71 C 46.504,11.71 49.702,15.409 50.601,16.208 C 51.801,17.208 52.501,17.208 52.501,17.208 L 52.501,17.208 L 55.4,17.208 L 55.4,7.608 L 52.4,7.608 L 52.4,14.108 L 52.4,14.108 M 57.299,17.107 L 60.299,17.107 L 60.299,7.607 L 57.299,7.607 L 57.299,17.107 L 57.299,17.107 M 89.097,9.908 L 92.997,9.908 L 92.997,17.107 L 95.997,17.107 L 95.997,9.908 L 99.796,9.908 L 99.796,7.61 L 89.096,7.61 L 89.096,9.908 L 89.096,9.908 M 112.195,10.507 C 112.392,10.207 112.592,10.108 112.691,9.708 C 112.99,8.408 111.09,7.71 110.291,7.71 L 108.492,7.71 L 103.893,7.71 L 103.893,7.71 L 100.893,7.71 L 100.893,7.71 L 100.893,10.01 L 100.893,17.208 L 103.893,17.208 L 103.893,9.908 L 108.992,9.908 L 106.193,13.007 L 109.89,17.107 L 113.587,17.107 L 109.89,13.007 L 112.189,10.507 L 112.189,10.507 M 82.689,7.607 L 82.689,7.607 L 82.689,7.607 L 77.689,17.107 L 80.886,17.207 L 84.286,10.707 L 87.686,17.207 L 90.883,17.107 L 85.883,7.607 L 82.686,7.607 L 82.686,7.607 M 33.987,7.607 L 33.987,7.607 L 33.987,7.607 L 28.987,17.107 L 32.187,17.207 L 35.586,10.707 L 38.985,17.207 L 42.185,17.107 L 37.185,7.607 L 33.985,7.607 L 33.985,7.607 M 74.384,7.607 L 74.384,7.607 C 74.085,7.607 73.388,7.706 72.888,8.404 L 69.789,13.103 L 66.69,8.404 C 66.29,7.706 65.593,7.607 65.294,7.607 L 65.294,7.607 L 62.294,7.607 L 62.294,17.106 L 65.294,17.106 L 65.294,10.907 L 69.194,17.106 L 69.694,17.106 L 69.793,17.106 L 70.293,17.106 L 74.293,10.806 L 74.293,17.106 L 77.293,17.106 L 77.293,7.607 L 74.494,7.607 C 74.593,7.607 74.593,7.607 74.396,7.607 L 74.396,7.607 M 123.494,7.508 " style="fill: none; stroke: #000000; stroke-width: 0.5; stroke-opacity: 1.0" visibility="hidden"><set attributeName="visibility" attributeType="CSS" to="visible" begin="0s; loop.end" fill="none"/><animateTransform attributeName="transform" type="translate" additive="replace" begin="0s; loop.end" dur="10s" repeatCount="1" fill="none" from="0.0 0.0" to="0.0 0.0" calcMode="discrete"/><animateTransform attributeName="transform" type="translate" additive="sum" begin="0s; loop.end" dur="10s" repeatCount="1" fill="none" from="-84.9945 -12.3535" to="-84.9945 -12.3535" calcMode="discrete"/></path></g><path id="id8a7a2913cdc70292eedb0931" d="M 12.399,0.5 C 18.999,0.5 24.296,5.8 24.296,12.399 C 24.296,18.999 18.998,24.297 12.398,24.297 C 5.798,24.297 0.499,18.898 0.499,12.398 C 0.499,5.898 5.799,0.499 12.398,0.499 M 12.398,-0.001 C 5.599,-0.001 -0,5.598 -0,12.397 C -0,19.196 5.599,24.796 12.398,24.796 C 19.197,24.796 24.796,19.196 24.796,12.398 C 24.796,5.599 19.197,-0.001 12.397,-0.001 L 12.397,-0.001 L 12.397,-0.001 M 12.397,0.499 " style="fill: #000000; fill-opacity: 1.0; stroke: none" visibility="hidden"><set attributeName="visibility" attributeType="CSS" to="visible" begin="0s; loop.end" fill="none"/><animateTransform attributeName="transform" type="translate" additive="replace" begin="0s; loop.end" dur="10s" repeatCount="1" fill="none" from="-58.099 0.0" to="-58.099 0.0" calcMode="discrete"/><animateTransform attributeName="transform" type="translate" additive="sum" begin="0s; loop.end" dur="10s" repeatCount="1" fill="none" from="-12.3995 -12.398" to="-12.3995 -12.398" calcMode="discrete"/></path></g></g></g><script><![CDATA[
      var document = null;
      var root = null;
      var scheduler = null;
      var schedulerEnabled = ((navigator.userAgent.indexOf('Safari') != -1) && (navigator.userAgent.indexOf('Chrome') == -1)) ||
                             (navigator.userAgent.match(/(iPod|iPhone|iPad)/) && navigator.userAgent.match(/AppleWebKit/) && !navigator.userAgent.match('CriOS'));
      var currentEvent = 0;
      var previousTime = 0;
      var nextTime = 0;

      function initialize(event)
      {
         document = event.target.ownerDocument;
         root = document.documentElement;
         if (schedulerEnabled && events.length > 0) {
             var event = events[currentEvent];
             while (currentEvent < events.length && events[currentEvent]["time"] == 0) { 
                 processEvent();
                 currentEvent += 1;
             }
             if (currentEvent < events.length) {
                 var time = events[currentEvent]["time"];
                 nextTime = time;
                 scheduler = setTimeout(processSchedule, time - previousTime);
             }
         }
      };

      function freeze()
      {
         root.pauseAnimations();
      };

      function processSchedule()
      {
         if (currentEvent < events.length) {
             var event = events[currentEvent];
             previousTime = nextTime;
             while (currentEvent < events.length && events[currentEvent]["time"] == nextTime) { 
                 processEvent();
                 currentEvent += 1;
             }
             if (currentEvent < events.length) {
                 var time = events[currentEvent]["time"];
                 nextTime = time;
                 scheduler = setTimeout(processSchedule, time - previousTime);
             }
         }
      };

      function processEvent()
      {
         var event = events[currentEvent];
         if ("audio_start" in event) { 
             event = event["audio_start"];
             var id = event["id"];
             var audio = document.getElementById(id);
             if (audio != undefined)
                 audio.play();
         }
         else if ("audio_stop" in event) { 
             event = event["audio_stop"];
             var id = event["id"];
             var audio = document.getElementById(id);
             if (audio != undefined) {
                 audio.pause();
                 audio.currentTime = 0;
             }
         }
         else if ("pause" in event) { 
             event = event["pause"];
             freeze();
         }
      };

    var events = [{"time": 9650,"pause": {}}]
]]></script><rect id="looper" x="0" y="0" width="1" height="1" style="fill: none; stroke: none"><set id="loop" attributeName="x" to="0" begin="0s; loop.end" dur="10s" fill="freeze"/></rect></svg>