<?xml version="1.0" encoding="UTF-8"?>
<svg version="1.1" viewBox="0 0 640 360" preserveAspectRatio="xMidYMid meet" xmlns="http://www.w3.org/2000/svg" xmlns:xlink="http://www.w3.org/1999/xlink" onload="initialize(evt)"><!--SVG SMIL Animation Export (c) 2015 Animatron LLC--><!--Version 1.0 by squared9--><defs><mask id="canvasMask"><rect x="0" y="0" width="640px" height="360px" fill="#FFFFFF" stroke="none"/></mask></defs><rect fill="#ffffff" stroke="none" x="0" y="0" width="640px" height="360px"/><g id="id456e62cc241a1c97acf07e02" mask="url(#canvasMask)"><path id="ide64608aee21c4eeb952a3f2c" d="M 220,216.5 C 274.105,216.5 326.514,225.5 378.997,225.5 " style="fill: none; stroke: #f46a0f; stroke-width: 2.0; stroke-opacity: 1.0" visibility="hidden"><set attributeName="visibility" attributeType="CSS" to="visible" begin="0s; loop.end" fill="none"/><animateTransform attributeName="transform" type="translate" additive="replace" begin="0s; loop.end" dur="16.4s" repeatCount="1" fill="none" from="299.5 221.0" to="299.5 221.0" calcMode="discrete"/><animateTransform attributeName="transform" type="translate" additive="sum" begin="0s; loop.end" dur="16.4s" repeatCount="1" fill="none" from="-299.5 -221.0" to="-299.5 -221.0" calcMode="discrete"/></path><path id="idc7f82e10d50bf06f3d44e88e" d="M 382,220.5 C 382,195.704 381,171.233 381,146.503 " style="fill: none; stroke: #f46a0f; stroke-width: 2.0; stroke-opacity: 1.0" visibility="hidden"><set attributeName="visibility" attributeType="CSS" to="hidden" begin="0s; loop.end" dur="0.4" fill="none"/><set attributeName="visibility" attributeType="CSS" to="visible" begin="0.4s; loop.end + 0.4s" fill="none"/><animateTransform attributeName="transform" type="translate" additive="replace" begin="0.4s; loop.end + 0.4s" dur="15.999999999999998s" repeatCount="1" fill="none" from="381.5 183.5" to="381.5 183.5" calcMode="discrete"/><animateTransform attributeName="transform" type="translate" additive="sum" begin="0.4s; loop.end + 0.4s" dur="15.999999999999998s" repeatCount="1" fill="none" from="-381.5 -183.5" to="-381.5 -183.5" calcMode="discrete"/></path><path id="id9eb35c886e78522f2a339736" d="M 377,137.5 C 322.582,137.5 270.364,133.5 217.004,133.5 " style="fill: none; stroke: #f46a0f; stroke-width: 2.0; stroke-opacity: 1.0" visibility="hidden"><set attributeName="visibility" attributeType="CSS" to="hidden" begin="0s; loop.end" dur="0.6" fill="none"/><set attributeName="visibility" attributeType="CSS" to="visible" begin="0.6s; loop.end + 0.6s" fill="none"/><animateTransform attributeName="transform" type="translate" additive="replace" begin="0.6s; loop.end + 0.6s" dur="15.799999999999999s" repeatCount="1" fill="none" from="297.0 135.5" to="297.0 135.5" calcMode="discrete"/><animateTransform attributeName="transform" type="translate" additive="sum" begin="0.6s; loop.end + 0.6s" dur="15.799999999999999s" repeatCount="1" fill="none" from="-297.0 -135.5" to="-297.0 -135.5" calcMode="discrete"/></path><path id="id4569310a64054af562d0169e" d="M 212,134.5 C 212,164.083 211,194.289 211,223.497 " style="fill: none; stroke: #f46a0f; stroke-width: 2.0; stroke-opacity: 1.0" visibility="hidden"><set attributeName="visibility" attributeType="CSS" to="hidden" begin="0s; loop.end" dur="0.8" fill="none"/><set attributeName="visibility" attributeType="CSS" to="visible" begin="0.8s; loop.end + 0.8s" fill="none"/><animateTransform attributeName="transform" type="translate" additive="replace" begin="0.8s; loop.end + 0.8s" dur="15.599999999999998s" repeatCount="1" fill="none" from="211.5 179.0" to="211.5 179.0" calcMode="discrete"/><animateTransform attributeName="transform" type="translate" additive="sum" begin="0.8s; loop.end + 0.8s" dur="15.599999999999998s" repeatCount="1" fill="none" from="-211.5 -179.0" to="-211.5 -179.0" calcMode="discrete"/></path><path id="id1b09f19da64f61094e9abfc8" d="M 233,162.5 C 233,166.286 232.296,170.884 233.5,174.498 C 246.407,213.22 241.894,164.498 259.999,164.498 " style="fill: none; stroke: #f46a0f; stroke-width: 2.0; stroke-opacity: 1.0" visibility="hidden"><set attributeName="visibility" attributeType="CSS" to="hidden" begin="0s; loop.end" dur="1.5" fill="none"/><set attributeName="visibility" attributeType="CSS" to="visible" begin="1.5s; loop.end + 1.5s" fill="none"/><animateTransform attributeName="transform" type="translate" additive="replace" begin="1.5s; loop.end + 1.5s" dur="14.899999999999999s" repeatCount="1" fill="none" from="246.397 175.975" to="246.397 175.975" calcMode="discrete"/><animateTransform attributeName="transform" type="translate" additive="sum" begin="1.5s; loop.end + 1.5s" dur="14.899999999999999s" repeatCount="1" fill="none" from="-246.3976 -175.976" to="-246.3976 -175.976" calcMode="discrete"/></path><path id="idaed02ab4b7a7ab1378519b34" d="M 267,190.5 C 267,187.5 267,184.502 267,181.502 " style="fill: none; stroke: #f46a0f; stroke-width: 2.0; stroke-opacity: 1.0" visibility="hidden"><set attributeName="visibility" attributeType="CSS" to="hidden" begin="0s; loop.end" dur="1.7" fill="none"/><set attributeName="visibility" attributeType="CSS" to="visible" begin="1.7s; loop.end + 1.7s" fill="none"/><animateTransform attributeName="transform" type="translate" additive="replace" begin="1.7s; loop.end + 1.7s" dur="14.7s" repeatCount="1" fill="none" from="267.0 186.0" to="267.0 186.0" calcMode="discrete"/><animateTransform attributeName="transform" type="translate" additive="sum" begin="1.7s; loop.end + 1.7s" dur="14.7s" repeatCount="1" fill="none" from="-267.0 -186.0" to="-267.0 -186.0" calcMode="discrete"/></path><path id="idb9a015bcf11e01f1c61a38bd" d="M 268,168.5 C 265.849,176.033 272.211,173.762 268.002,168.502 " style="fill: none; stroke: #f46a0f; stroke-width: 2.0; stroke-opacity: 1.0" visibility="hidden"><set attributeName="visibility" attributeType="CSS" to="hidden" begin="0s; loop.end" dur="1.9" fill="none"/><set attributeName="visibility" attributeType="CSS" to="visible" begin="1.9s; loop.end + 1.9s" fill="none"/><animateTransform attributeName="transform" type="translate" additive="replace" begin="1.9s; loop.end + 1.9s" dur="14.499999999999998s" repeatCount="1" fill="none" from="268.508 170.918" to="268.508 170.918" calcMode="discrete"/><animateTransform attributeName="transform" type="translate" additive="sum" begin="1.9s; loop.end + 1.9s" dur="14.499999999999998s" repeatCount="1" fill="none" from="-268.5082 -170.9181" to="-268.5082 -170.9181" calcMode="discrete"/></path><path id="id3f6f21a200e8cdcb0d5878b1" d="M 282,184.5 C 298.406,184.5 314.091,170.151 294.998,172.5 C 273.732,175.116 282.838,192.498 299.996,192.498 " style="fill: none; stroke: #f46a0f; stroke-width: 2.0; stroke-opacity: 1.0" visibility="hidden"><set attributeName="visibility" attributeType="CSS" to="hidden" begin="0s; loop.end" dur="2.1" fill="none"/><set attributeName="visibility" attributeType="CSS" to="visible" begin="2.1s; loop.end + 2.1s" fill="none"/><animateTransform attributeName="transform" type="translate" additive="replace" begin="2.1s; loop.end + 2.1s" dur="14.299999999999999s" repeatCount="1" fill="none" from="292.882 182.369" to="292.882 182.369" calcMode="discrete"/><animateTransform attributeName="transform" type="translate" additive="sum" begin="2.1s; loop.end + 2.1s" dur="14.299999999999999s" repeatCount="1" fill="none" from="-292.8823 -182.3699" to="-292.8823 -182.3699" calcMode="discrete"/></path><path id="id5c89612a9a5b8ac4f7fc78f0" d="M 314,174.5 C 314.504,179.539 329.499,201.498 329.499,201.498 C 333.388,199.095 332.823,179.5 339.998,179.5 " style="fill: none; stroke: #f46a0f; stroke-width: 2.0; stroke-opacity: 1.0" visibility="hidden"><set attributeName="visibility" attributeType="CSS" to="hidden" begin="0s; loop.end" dur="2.3" fill="none"/><set attributeName="visibility" attributeType="CSS" to="visible" begin="2.3s; loop.end + 2.3s" fill="none"/><animateTransform attributeName="transform" type="translate" additive="replace" begin="2.3s; loop.end + 2.3s" dur="14.099999999999998s" repeatCount="1" fill="none" from="327.0 188.0" to="327.0 188.0" calcMode="discrete"/><animateTransform attributeName="transform" type="translate" additive="sum" begin="2.3s; loop.end + 2.3s" dur="14.099999999999998s" repeatCount="1" fill="none" from="-327.0 -188.0" to="-327.0 -188.0" calcMode="discrete"/></path><path id="idb18a057663c62f510af1e2f0" d="M 339,179.5 C 345.391,181.629 349.999,191.568 349.999,197.995 C 349.999,197.995 351.297,180.495 355.998,180.495 " style="fill: none; stroke: #f46a0f; stroke-width: 2.0; stroke-opacity: 1.0" visibility="hidden"><set attributeName="visibility" attributeType="CSS" to="hidden" begin="0s; loop.end" dur="2.5" fill="none"/><set attributeName="visibility" attributeType="CSS" to="visible" begin="2.5s; loop.end + 2.5s" fill="none"/><animateTransform attributeName="transform" type="translate" additive="replace" begin="2.5s; loop.end + 2.5s" dur="13.899999999999999s" repeatCount="1" fill="none" from="347.5 188.75" to="347.5 188.75" calcMode="discrete"/><animateTransform attributeName="transform" type="translate" additive="sum" begin="2.5s; loop.end + 2.5s" dur="13.899999999999999s" repeatCount="1" fill="none" from="-347.5 -188.75" to="-347.5 -188.75" calcMode="discrete"/></path><path id="id0f1810eab83c5691eed31099" d="M 334,149.5 C 349.389,136.309 399.946,105.329 361.999,84.004 C 334.675,68.649 306.697,95.616 298.501,119.504 C 296.965,123.981 295.893,151.502 301.001,151.502 " style="fill: none; stroke: #f46a0f; stroke-width: 2.0; stroke-opacity: 1.0" visibility="hidden"><set attributeName="visibility" attributeType="CSS" to="hidden" begin="0s; loop.end" dur="4" fill="none"/><set attributeName="visibility" attributeType="CSS" to="visible" begin="4s; loop.end + 4s" fill="none"/><animateTransform attributeName="transform" type="translate" additive="replace" begin="4s; loop.end + 4s" dur="12.399999999999999s" repeatCount="1" fill="none" from="336.526 115.5" to="336.526 115.5" calcMode="discrete"/><animateTransform attributeName="transform" type="translate" additive="sum" begin="4s; loop.end + 4s" dur="12.399999999999999s" repeatCount="1" fill="none" from="-336.5267 -115.5003" to="-336.5267 -115.5003" calcMode="discrete"/></path><path id="id6b01a41b79bc9ff2b65ed29f" d="M 290,146.5 C 299.045,146.5 309.999,160.051 309.999,143.5 " style="fill: none; stroke: #f46a0f; stroke-width: 2.0; stroke-opacity: 1.0" visibility="hidden"><set attributeName="visibility" attributeType="CSS" to="hidden" begin="0s; loop.end" dur="4.2" fill="none"/><set attributeName="visibility" attributeType="CSS" to="visible" begin="4.2s; loop.end + 4.2s" fill="none"/><animateTransform attributeName="transform" type="translate" additive="replace" begin="4.2s; loop.end + 4.2s" dur="12.2s" repeatCount="1" fill="none" from="300.0 147.612" to="300.0 147.612" calcMode="discrete"/><animateTransform attributeName="transform" type="translate" additive="sum" begin="4.2s; loop.end + 4.2s" dur="12.2s" repeatCount="1" fill="none" from="-300.0 -147.6121" to="-300.0 -147.6121" calcMode="discrete"/></path><path id="idf0d1b6adcc3a8d51628c2c33" d="M 299,211.5 C 293.457,237.375 266.378,299.122 308.002,307.997 C 349.787,316.907 364.537,277.28 354.001,243.997 C 351.088,234.797 338.855,213.499 327.004,213.499 " style="fill: none; stroke: #f46a0f; stroke-width: 2.0; stroke-opacity: 1.0" visibility="hidden"><set attributeName="visibility" attributeType="CSS" to="hidden" begin="0s; loop.end" dur="5.8" fill="none"/><set attributeName="visibility" attributeType="CSS" to="visible" begin="5.8s; loop.end + 5.8s" fill="none"/><animateTransform attributeName="transform" type="translate" additive="replace" begin="5.8s; loop.end + 5.8s" dur="10.599999999999998s" repeatCount="1" fill="none" from="321.251 260.386" to="321.251 260.386" calcMode="discrete"/><animateTransform attributeName="transform" type="translate" additive="sum" begin="5.8s; loop.end + 5.8s" dur="10.599999999999998s" repeatCount="1" fill="none" from="-321.2512 -260.3865" to="-321.2512 -260.3865" calcMode="discrete"/></path><path id="ide6a370f7adb07dd377a2af35" d="M 328,211.5 C 332.684,211.5 343.998,211.5 343.998,211.5 " style="fill: none; stroke: #f46a0f; stroke-width: 2.0; stroke-opacity: 1.0" visibility="hidden"><set attributeName="visibility" attributeType="CSS" to="hidden" begin="0s; loop.end" dur="5.9" fill="none"/><set attributeName="visibility" attributeType="CSS" to="visible" begin="5.9s; loop.end + 5.9s" fill="none"/><animateTransform attributeName="transform" type="translate" additive="replace" begin="5.9s; loop.end + 5.9s" dur="10.499999999999998s" repeatCount="1" fill="none" from="336.0 211.5" to="336.0 211.5" calcMode="discrete"/><animateTransform attributeName="transform" type="translate" additive="sum" begin="5.9s; loop.end + 5.9s" dur="10.499999999999998s" repeatCount="1" fill="none" from="-336.0 -211.5" to="-336.0 -211.5" calcMode="discrete"/></path><path id="idd4d42acdd8dacf5e5a12be20" d="M 326,214.5 C 326,217.498 326,220.498 326,223.498 " style="fill: none; stroke: #f46a0f; stroke-width: 2.0; stroke-opacity: 1.0" visibility="hidden"><set attributeName="visibility" attributeType="CSS" to="hidden" begin="0s; loop.end" dur="6.1" fill="none"/><set attributeName="visibility" attributeType="CSS" to="visible" begin="6.1s; loop.end + 6.1s" fill="none"/><animateTransform attributeName="transform" type="translate" additive="replace" begin="6.1s; loop.end + 6.1s" dur="10.299999999999999s" repeatCount="1" fill="none" from="326.0 219.0" to="326.0 219.0" calcMode="discrete"/><animateTransform attributeName="transform" type="translate" additive="sum" begin="6.1s; loop.end + 6.1s" dur="10.299999999999999s" repeatCount="1" fill="none" from="-326.0 -219.0" to="-326.0 -219.0" calcMode="discrete"/></path><path id="id64e2a31baf68b536ed43c013" d="M 224,148.5 C 224,114.709 169.628,30.047 130.502,80.001 C 112.469,103.026 112.788,129.379 128.502,153 C 140.534,171.087 178.386,206.658 201.5,190 C 203.787,188.353 217.998,182.94 217.998,181.503 " style="fill: none; stroke: #f46a0f; stroke-width: 2.0; stroke-opacity: 1.0" visibility="hidden"><set attributeName="visibility" attributeType="CSS" to="hidden" begin="0s; loop.end" dur="7.5" fill="none"/><set attributeName="visibility" attributeType="CSS" to="visible" begin="7.5s; loop.end + 7.5s" fill="none"/><animateTransform attributeName="transform" type="translate" additive="replace" begin="7.5s; loop.end + 7.5s" dur="8.899999999999999s" repeatCount="1" fill="none" from="170.418 129.463" to="170.418 129.463" calcMode="discrete"/><animateTransform attributeName="transform" type="translate" additive="sum" begin="7.5s; loop.end + 7.5s" dur="8.899999999999999s" repeatCount="1" fill="none" from="-170.4181 -129.4635" to="-170.4181 -129.4635" calcMode="discrete"/></path><path id="id427b38e5c33782c13c368b4f" d="M 202,172.5 C 234.031,172.5 217,175.481 217,197.497 " style="fill: none; stroke: #f46a0f; stroke-width: 2.0; stroke-opacity: 1.0" visibility="hidden"><set attributeName="visibility" attributeType="CSS" to="hidden" begin="0s; loop.end" dur="7.9" fill="none"/><set attributeName="visibility" attributeType="CSS" to="visible" begin="7.9s; loop.end + 7.9s" fill="none"/><animateTransform attributeName="transform" type="translate" additive="replace" begin="7.9s; loop.end + 7.9s" dur="8.499999999999998s" repeatCount="1" fill="none" from="211.761 185.0" to="211.761 185.0" calcMode="discrete"/><animateTransform attributeName="transform" type="translate" additive="sum" begin="7.9s; loop.end + 7.9s" dur="8.499999999999998s" repeatCount="1" fill="none" from="-211.7619 -185.0" to="-211.7619 -185.0" calcMode="discrete"/></path><path id="id336d68cdc886a18b9ec75cff" d="M 372,202.5 C 386.375,204.552 397.213,220.893 407.996,229.496 C 439.387,254.541 501.66,262.055 504.994,208.495 C 509.299,139.322 389.107,165.495 351.994,165.495 " style="fill: none; stroke: #f46a0f; stroke-width: 2.0; stroke-opacity: 1.0" visibility="hidden"><set attributeName="visibility" attributeType="CSS" to="hidden" begin="0s; loop.end" dur="9" fill="none"/><set attributeName="visibility" attributeType="CSS" to="visible" begin="9s; loop.end + 9s" fill="none"/><animateTransform attributeName="transform" type="translate" additive="replace" begin="9s; loop.end + 9s" dur="7.399999999999999s" repeatCount="1" fill="none" from="428.556 204.67" to="428.556 204.67" calcMode="discrete"/><animateTransform attributeName="transform" type="translate" additive="sum" begin="9s; loop.end + 9s" dur="7.399999999999999s" repeatCount="1" fill="none" from="-428.5564 -204.6705" to="-428.5564 -204.6705" calcMode="discrete"/></path><path id="id047feeb2fb4d0a46516b3190" d="M 358,156.5 C 347.441,164.711 353.414,174.498 366.998,174.498 " style="fill: none; stroke: #f46a0f; stroke-width: 2.0; stroke-opacity: 1.0" visibility="hidden"><set attributeName="visibility" attributeType="CSS" to="hidden" begin="0s; loop.end" dur="9.2" fill="none"/><set attributeName="visibility" attributeType="CSS" to="visible" begin="9.2s; loop.end + 9.2s" fill="none"/><animateTransform attributeName="transform" type="translate" additive="replace" begin="9.2s; loop.end + 9.2s" dur="7.199999999999999s" repeatCount="1" fill="none" from="359.802 165.5" to="359.802 165.5" calcMode="discrete"/><animateTransform attributeName="transform" type="translate" additive="sum" begin="9.2s; loop.end + 9.2s" dur="7.199999999999999s" repeatCount="1" fill="none" from="-359.803 -165.5" to="-359.803 -165.5" calcMode="discrete"/></path><path id="ide822b7a9825f0ce5dc96b574" d="M 255,204.5 C 220.398,224.271 155.395,307.985 220,336.997 C 304.488,374.937 400.966,325.995 439.999,251.498 C 463.628,206.4 446.134,126.618 401.5,101.501 C 361.827,79.176 272.578,79.325 252.003,129.001 C 247.786,139.182 259.002,142.132 259.002,149.497 " style="fill: none; stroke: #f46a0f; stroke-width: 2.0; stroke-opacity: 1.0" visibility="hidden"><set attributeName="visibility" attributeType="CSS" to="hidden" begin="0s; loop.end" dur="10.2" fill="none"/><set attributeName="visibility" attributeType="CSS" to="visible" begin="10.2s; loop.end + 10.2s" fill="none"/><animateTransform attributeName="transform" type="translate" additive="replace" begin="10.2s; loop.end + 10.2s" dur="6.199999999999999s" repeatCount="1" fill="none" from="321.528 218.69" to="321.528 218.69" calcMode="discrete"/><animateTransform attributeName="transform" type="translate" additive="sum" begin="10.2s; loop.end + 10.2s" dur="6.199999999999999s" repeatCount="1" fill="none" from="-321.5284 -218.6903" to="-321.5284 -218.6903" calcMode="discrete"/></path><path id="ida3627245e1f2d008e84fb90d" d="M 248,149.5 C 255.068,149.5 273.999,157.558 273.999,142.5 " style="fill: none; stroke: #f46a0f; stroke-width: 2.0; stroke-opacity: 1.0" visibility="hidden"><set attributeName="visibility" attributeType="CSS" to="hidden" begin="0s; loop.end" dur="10.5" fill="none"/><set attributeName="visibility" attributeType="CSS" to="visible" begin="10.5s; loop.end + 10.5s" fill="none"/><animateTransform attributeName="transform" type="translate" additive="replace" begin="10.5s; loop.end + 10.5s" dur="5.899999999999999s" repeatCount="1" fill="none" from="261.0 147.077" to="261.0 147.077" calcMode="discrete"/><animateTransform attributeName="transform" type="translate" additive="sum" begin="10.5s; loop.end + 10.5s" dur="5.899999999999999s" repeatCount="1" fill="none" from="-261.0 -147.077" to="-261.0 -147.077" calcMode="discrete"/></path><path id="id47f0e1acab2a3f638f457fe4" d="M 273,112.5 C 235.152,117.906 201.002,123.347 201.002,166.997 C 201.002,175.245 199.25,180.642 206.503,186.992 C 253.197,227.876 387.183,161.079 344.003,94.491 C 314.179,48.498 251.245,101.583 258.503,143.489 C 263.267,170.998 296.029,177.943 319.499,177.488 C 327.847,177.326 350.664,170.588 343.999,156.49 C 337.798,143.373 315.577,159.356 316,169.99 C 316.572,184.336 351.04,175.457 343.5,166.492 C 321.169,139.941 272.912,202.688 311.001,189.993 C 311.001,189.993 303.001,187.493 303.001,187.493 " style="fill: none; stroke: #f46a0f; stroke-width: 2.0; stroke-opacity: 1.0" visibility="hidden"><set attributeName="visibility" attributeType="CSS" to="hidden" begin="0s; loop.end" dur="12.2" fill="none"/><set attributeName="visibility" attributeType="CSS" to="visible" begin="12.2s; loop.end + 12.2s" fill="none"/><animateTransform attributeName="transform" type="translate" additive="replace" begin="12.2s; loop.end + 12.2s" dur="4.199999999999999s" repeatCount="1" fill="none" from="276.633 138.126" to="276.633 138.126" calcMode="discrete"/><animateTransform attributeName="transform" type="translate" additive="sum" begin="12.2s; loop.end + 12.2s" dur="4.199999999999999s" repeatCount="1" fill="none" from="-276.633 -138.1265" to="-276.633 -138.1265" calcMode="discrete"/></path><path id="ide98be1b6dbc5478fd6114405" d="M 367,156.5 C 336.945,159.838 235.476,187.673 254.001,231.996 C 273.182,277.89 356.778,253.502 380.499,226.996 C 389.316,217.143 403.419,193.678 393.997,179.497 C 369.028,141.916 284.98,196.591 295.999,234.995 C 304.083,263.17 355.26,244.258 357.997,219.995 C 361.124,192.275 303.338,202.966 303.494,225.993 C 303.57,237.289 352.529,218.559 349.493,199.995 C 347.453,187.523 320.624,190.335 317.997,190.493 C 292.81,192.02 255.519,201.965 237.998,222.99 C 244.473,223.915 260.415,215.414 248.997,209.491 C 240.627,205.149 197.999,212.455 197.999,226.489 " style="fill: none; stroke: #f46a0f; stroke-width: 2.0; stroke-opacity: 1.0" visibility="hidden"><set attributeName="visibility" attributeType="CSS" to="hidden" begin="0s; loop.end" dur="12.7" fill="none"/><set attributeName="visibility" attributeType="CSS" to="visible" begin="12.7s; loop.end + 12.7s" fill="none"/><animateTransform attributeName="transform" type="translate" additive="replace" begin="12.7s; loop.end + 12.7s" dur="3.6999999999999993s" repeatCount="1" fill="none" from="297.559 207.103" to="297.559 207.103" calcMode="discrete"/><animateTransform attributeName="transform" type="translate" additive="sum" begin="12.7s; loop.end + 12.7s" dur="3.6999999999999993s" repeatCount="1" fill="none" from="-297.5595 -207.1033" to="-297.5595 -207.1033" calcMode="discrete"/></path><path id="id92be2ee197c8daba91eb0e9b" d="M 340,145.5 C 340,145.5 333.5,142.5 333.5,142.5 C 339.411,144.649 363.137,151.639 367.497,155.999 C 329.625,129.174 237.546,53.527 198.499,119.5 C 160.218,184.178 323.113,226.362 345.997,172.999 C 356.526,148.445 317.5,144.985 303.498,145.499 C 240.998,177.999 231.498,194.499 231.498,194.499 C 210.859,248.881 307.207,239.171 300.998,207 C 296.47,183.538 224.752,231.5 269.499,231.5 C 254.031,235.109 214.094,260.318 200.502,258.499 C 173.516,254.885 153.352,227.501 121.505,227.501 C 131.788,219.666 162.679,177.115 175.502,177.004 C 178.755,176.977 179.898,191.931 185.001,194.504 C 200.176,202.156 222.447,195.915 238.497,197.503 C 267.644,200.388 264.349,213.533 298.495,197.501 C 337.956,178.974 419.802,133.256 407.493,76.003 C 396.241,23.661 317.095,17.132 276.497,25.502 C 224.13,36.3 166.555,94.255 189.498,153.001 C 196.428,170.743 210.418,175.622 228.497,179.998 C 277.033,191.745 387.778,196.581 426.994,151.997 C 446.84,129.435 382.366,131.497 372.996,131.497 C 405.193,134.037 436.587,137.296 467.995,145.493 C 487.071,150.471 537.364,160.652 546.993,184.491 C 553.046,199.476 546.42,212.109 557.992,226.486 C 567.539,238.346 599.096,254.136 612.49,237.984 C 639.951,204.868 578.499,149.819 558.991,135.987 C 510.045,101.278 411.261,76.117 354.495,107.487 C 311.438,131.282 287.686,237.64 329.498,272.486 C 365.356,302.37 422.559,275.899 445.994,244.986 C 457.203,230.199 468.491,214.55 454.492,198.488 C 438.67,180.333 397.8,179.61 380.495,178.49 C 291.143,172.708 197.091,184.853 113.496,217.49 C 86.239,228.131 10.524,259.111 32.996,304.986 C 57.63,355.277 115.427,291.212 110.995,255.988 C 108.235,234.049 85.499,220.499 66.998,213.491 C 34.498,200.491 48.498,181.491 48.498,181.491 C 69.019,158.025 93.529,140.198 117.996,121.493 C 120.94,119.242 144.721,102.833 138.994,94.495 C 133.98,87.196 111.995,97.495 111.995,97.495 C 100.029,102.437 48.006,129.98 47.498,148.994 C 47.228,159.092 70.998,157.494 70.998,157.494 C 70.998,157.494 103.547,156.997 134.496,150.995 C 142.224,148.998 153.495,141.496 153.495,141.496 C 154.986,140.621 173.102,130.345 172.494,124.999 C 172.265,122.986 155.453,123.945 168.495,133.499 C 189.894,149.176 226.858,149.62 250.993,151.496 C 277.864,153.583 305.255,151.525 331.99,154.494 " style="fill: none; stroke: #f46a0f; stroke-width: 2.0; stroke-opacity: 1.0" visibility="hidden"><set attributeName="visibility" attributeType="CSS" to="hidden" begin="0s; loop.end" dur="13.3" fill="none"/><set attributeName="visibility" attributeType="CSS" to="visible" begin="13.3s; loop.end + 13.3s" fill="none"/><animateTransform attributeName="transform" type="translate" additive="replace" begin="13.3s; loop.end + 13.3s" dur="3.099999999999998s" repeatCount="1" fill="none" from="324.169 173.009" to="324.169 173.009" calcMode="discrete"/><animateTransform attributeName="transform" type="translate" additive="sum" begin="13.3s; loop.end + 13.3s" dur="3.099999999999998s" repeatCount="1" fill="none" from="-324.1696 -173.0094" to="-324.1696 -173.0094" calcMode="discrete"/></path><path id="id53e17201d8b1b6012657d91f" d="M 476,304.5 C 503.567,300.563 510.917,242.097 487.499,229.503 C 460.369,214.911 388.745,238.747 424.5,274.502 C 446.86,296.862 498.018,286.857 520.997,272.502 C 535.942,263.168 556.1,241.046 543.498,221.007 C 532.662,203.777 495.192,202.229 482,201.01 C 437.356,196.881 378.078,192.581 334.501,210.011 C 371.258,216.496 363.203,186.704 336.501,172.511 C 305.35,155.953 270.655,150.258 236.004,148.014 C 236.004,148.014 198.527,148.688 197.006,145.014 C 193.824,137.329 227.701,127.7 222.008,119.018 C 219.952,115.883 193.009,118.018 193.009,118.018 C 175.454,119.633 127.677,125.176 123.01,148.513 " style="fill: none; stroke: #f46a0f; stroke-width: 2.0; stroke-opacity: 1.0" visibility="hidden"><set attributeName="visibility" attributeType="CSS" to="hidden" begin="0s; loop.end" dur="13.9" fill="none"/><set attributeName="visibility" attributeType="CSS" to="visible" begin="13.9s; loop.end + 13.9s" fill="none"/><animateTransform attributeName="transform" type="translate" additive="replace" begin="13.9s; loop.end + 13.9s" dur="2.4999999999999982s" repeatCount="1" fill="none" from="335.232 210.894" to="335.232 210.894" calcMode="discrete"/><animateTransform attributeName="transform" type="translate" additive="sum" begin="13.9s; loop.end + 13.9s" dur="2.4999999999999982s" repeatCount="1" fill="none" from="-335.2328 -210.8947" to="-335.2328 -210.8947" calcMode="discrete"/></path><path id="id0e64ec21dcef8207b70d52e8" d="M 520,67.5 C 468.39,60.128 390.299,27.788 367.504,101.501 C 348.418,163.219 439.944,158.33 433.005,112.001 C 430.82,97.404 401.943,97.575 392.509,97.502 C 359.757,97.245 322.202,104.785 305.513,136.002 C 301.602,143.316 289.638,175.274 296.013,185 C 306.787,201.433 355.025,191.061 357.51,169.999 C 359.772,150.826 319.739,140.395 308.509,136.5 C 272.444,123.991 203.557,102.874 165.012,118.5 C 118.753,137.254 207.999,190.761 205.513,126.001 C 204.29,94.143 139.737,68.881 115.515,88.001 C 99.333,100.773 101.566,134.001 103.013,150.998 C 107.219,200.415 134.782,196.365 175.509,195.499 C 196.713,195.05 239.4,194.325 243.505,165.003 C 245.783,148.727 220.174,156.073 213.505,159.503 C 182.61,175.392 164.577,236.744 188.007,265 C 220.478,304.16 331.397,286.37 322.008,223.001 C 319.143,203.659 252.509,246.752 292.509,267.499 C 320.446,281.989 397.78,289.667 418.006,255.997 C 431.297,233.871 418.014,216.614 404.507,194.999 C 379.101,154.345 308.22,116.432 261.011,149.498 C 212.633,183.383 268.083,239.232 312.51,230.497 C 351.582,222.815 375.406,169.199 370.007,133 C 361.738,77.558 264.918,112.019 246.009,144.5 C 228.283,174.948 255.146,192.643 284.008,191.499 C 311.387,190.413 335.754,169.508 344.506,144 C 347.073,136.516 352.125,113.744 346.005,106.003 C 317.546,70.016 260.099,135.22 278.007,170.503 C 288.081,190.355 320.198,175.782 304.504,158.005 C 285.052,135.969 232.663,163.568 252.504,192.504 C 270.465,218.697 330.161,217.702 354.002,204.505 C 366.132,197.79 389.244,167.431 378.501,151.507 C 354.944,116.593 279.447,143.719 253.503,160.008 C 246.751,164.247 232.407,174.006 234.004,184.504 C 236.205,198.981 267.346,203.062 275.999,204.5 C 313.042,210.662 420.734,228.248 436.996,177.5 C 444.832,153.045 427.467,144.168 403.996,148.502 C 374.896,153.874 347.983,191.286 354.997,220.997 C 365.035,263.526 468.244,266.422 476.493,219.497 C 487.899,154.604 367.063,157.011 331.994,167.496 C 319.271,171.298 260.296,203.908 269.993,228.493 C 273.69,237.865 307.971,237.17 313.99,230.995 C 320.203,224.62 319.877,197.8 319.49,193.999 C 315.171,151.652 282.448,122.438 241.494,119 C 220.165,117.21 191.817,120.368 181.999,143 C 165.741,180.473 279.373,162.221 244.001,120.001 C 218.13,89.123 161.795,151.227 195.001,171.499 C 195.001,171.499 229.501,178.499 229.501,178.499 C 274.467,181.132 327.762,159.578 356.999,124.498 C 360.849,119.878 378.608,94.3 372.996,86.001 C 356.013,60.887 258.191,106.533 273.496,134.001 C 283.695,152.305 318.187,157.362 336.494,158.997 C 348.832,160.099 368.334,154.061 356.493,136.999 C 347.917,124.641 321.823,126.023 310.497,128.998 C 281.683,136.567 229.001,179.646 238.499,215.994 C 250.717,262.753 340.483,237.369 315.496,188.996 C 308.843,176.114 291.846,177.252 280,179.494 C 249.807,185.211 189.74,230.054 201,268.49 C 208.284,293.355 251.756,270.266 259.996,257.992 C 260.275,257.576 269.234,240.495 264.994,240.495 " style="fill: none; stroke: #f46a0f; stroke-width: 2.0; stroke-opacity: 1.0" visibility="hidden"><set attributeName="visibility" attributeType="CSS" to="hidden" begin="0s; loop.end" dur="14.4" fill="none"/><set attributeName="visibility" attributeType="CSS" to="visible" begin="14.4s; loop.end + 14.4s" fill="none"/><animateTransform attributeName="transform" type="translate" additive="replace" begin="14.4s; loop.end + 14.4s" dur="1.9999999999999982s" repeatCount="1" fill="none" from="310.998 169.886" to="310.998 169.886" calcMode="discrete"/><animateTransform attributeName="transform" type="translate" additive="sum" begin="14.4s; loop.end + 14.4s" dur="1.9999999999999982s" repeatCount="1" fill="none" from="-310.999 -169.8862" to="-310.999 -169.8862" calcMode="discrete"/></path><g id="idf1038a48ef424df1ebfb021e" visibility="hidden"><set attributeName="visibility" attributeType="CSS" to="visible" begin="0s; loop.end" fill="none"/><animateTransform attributeName="transform" type="translate" additive="replace" begin="0s; loop.end" dur="16.4s" repeatCount="1" fill="none" from="5.0 330.203" to="5.0 330.203" calcMode="discrete"/><animateTransform attributeName="transform" type="scale" additive="sum" begin="0s; loop.end" dur="16.4s" repeatCount="1" fill="none" from="1.0 1.0" to="1.0 1.0" calcMode="discrete"/><animateTransform attributeName="transform" type="translate" additive="sum" begin="0s; loop.end" dur="16.4s" repeatCount="1" fill="none" from="-0.0 -0.0" to="-0.0 -0.0" calcMode="discrete"/><g id="ida5aac2bd03a0dd3b7b12c06f" visibility="hidden"><set attributeName="visibility" attributeType="CSS" to="visible" begin="0s; loop.end" fill="none"/><animateTransform attributeName="transform" type="translate" additive="replace" begin="0s; loop.end" dur="16.4s" repeatCount="1" fill="none" from="0.0 0.0" to="0.0 0.0" calcMode="discrete"/><animateTransform attributeName="transform" type="translate" additive="sum" begin="0s; loop.end" dur="16.4s" repeatCount="1" fill="none" from="70.498 12.399" to="70.498 12.399" calcMode="discrete"/><g id="id11398e05befb5f84fa035f6d" visibility="hidden"><set attributeName="visibility" attributeType="CSS" to="visible" begin="0s; loop.end" fill="none"/><animateTransform attributeName="transform" type="translate" additive="replace" begin="0s; loop.end" dur="16.4s" repeatCount="1" fill="none" from="-58.1 0.0" to="-58.1 0.0" calcMode="discrete"/><animateTransform attributeName="transform" type="translate" additive="sum" begin="0s; loop.end" dur="16.4s" repeatCount="1" fill="none" from="-0.0 -0.0" to="-0.0 -0.0" calcMode="discrete"/><path id="id7a13cc11ca098f627cbfc423" d="M 23.5,12.5 C 23.5,18.684 18.531,23.697 12.402,23.697 C 6.272,23.697 1.303,18.685 1.303,12.501 C 1.303,6.316 6.272,1.302 12.402,1.302 C 18.531,1.302 23.5,6.316 23.5,12.501 L 23.5,12.501 M 23.5,12.501 " style="fill: #38393a; fill-opacity: 1.0; stroke: none" visibility="hidden"><set attributeName="visibility" attributeType="CSS" to="visible" begin="0s; loop.end" fill="none"/><animateTransform attributeName="transform" type="translate" additive="replace" begin="0s; loop.end" dur="16.4s" repeatCount="1" fill="none" from="0.002 0.101" to="0.002 0.101" calcMode="discrete"/><animateTransform attributeName="transform" type="translate" additive="sum" begin="0s; loop.end" dur="16.4s" repeatCount="1" fill="none" from="-12.401 -12.5" to="-12.401 -12.5" calcMode="discrete"/></path><g id="id008ce7b077bb67664677f441" visibility="hidden"><set attributeName="visibility" attributeType="CSS" to="visible" begin="0s; loop.end" fill="none"/><animateTransform attributeName="transform" type="translate" additive="replace" begin="0s; loop.end" dur="16.4s" repeatCount="1" fill="none" from="0.0 0.0" to="0.0 0.0" calcMode="discrete"/><animateTransform attributeName="transform" type="translate" additive="sum" begin="0s; loop.end" dur="16.4s" repeatCount="1" fill="none" from="-0.0 -0.0" to="-0.0 -0.0" calcMode="discrete"/><path id="id102b3c2787d9c6f05a70e602" d="M 12.399,0.5 C 5.8,0.5 0.5,5.8 0.5,12.399 C 0.5,18.999 5.8,24.297 12.399,24.297 C 18.999,24.297 24.296,18.999 24.296,12.399 C 24.296,5.799 18.897,0.5 12.397,0.5 L 12.397,0.5 M 18.296,16 C 17.696,17 16.997,18.1 16.798,18.397 L 16.798,18.497 L 16.698,18.497 C 16.299,18.696 14.899,19.095 14.201,19.095 C 14.201,19.095 14.102,19.095 14.102,19.095 L 14.003,19.095 C 13.203,18.798 11.403,18.198 10.804,17.999 C 9.804,18.398 8.804,18.898 7.804,19.398 C 7.304,19.597 6.904,19.894 6.404,20.093 C 6.404,20.093 6.404,20.093 6.404,20.093 C 6.404,20.093 5.404,20.693 5.204,20.693 L 4.905,20.693 L 4.905,20.396 C 4.905,19.796 5.004,18.397 5.103,18.1 C 6.401,4.1 11.6,2.902 11.798,2.802 C 11.996,2.802 12.296,2.703 12.494,2.703 L 12.593,2.703 C 12.692,2.703 12.692,2.703 12.791,2.703 C 17.09,2.703 21.289,13.703 21.488,14.203 C 21.588,14.401 21.787,15.099 21.887,15.198 L 21.987,15.498 L 18.289,15.997 L 18.289,15.997 M 12.39,0.497 " style="fill: #ffbc00; fill-opacity: 1.0; stroke: none" visibility="hidden"><set attributeName="visibility" attributeType="CSS" to="visible" begin="0s; loop.end" fill="none"/><animateTransform attributeName="transform" type="translate" additive="replace" begin="0s; loop.end" dur="16.4s" repeatCount="1" fill="none" from="0.0 0.0" to="0.0 0.0" calcMode="discrete"/><animateTransform attributeName="transform" type="translate" additive="sum" begin="0s; loop.end" dur="16.4s" repeatCount="1" fill="none" from="-12.399 -12.3985" to="-12.399 -12.3985" calcMode="discrete"/></path><path id="idd95fe6f0f41ee17129b61bb0" d="M 13.899,7.8 C 13.201,7.8 12.602,7.501 12.602,7.501 L 11.503,7.001 L 12.701,7.001 C 13.099,7.001 13.297,6.803 13.495,6.504 C 13.693,6.205 13.594,5.906 13.495,5.706 C 13.195,5.206 12.895,5.008 12.498,5.008 C 11.498,5.008 10.399,6.107 9.899,6.706 C 9.3,7.606 8.8,8.705 8.403,10.005 C 9.601,9.406 11.899,8.507 15.798,7.809 L 15.996,7.809 L 16.694,9.809 L 16.397,9.908 C 10.797,10.908 8.198,12.606 7.599,13.003 C 7.3,14.303 7.102,15.803 6.904,17.3 L 10.303,16.101 L 12.303,16.8 C 13.103,17.097 13.603,17.197 14.002,17.396 C 14.601,17.396 15.799,17.099 16.198,16.9 C 16.397,16.603 17.397,15.103 17.796,14.303 L 17.896,14.204 L 17.996,14.204 C 18.695,14.105 19.294,14.006 19.693,14.006 C 18.994,11.907 17.395,8.407 15.995,6.507 C 15.495,7.606 14.495,7.806 13.896,7.806 L 13.896,7.806 M 16.395,13.305 C 15.895,14.404 14.296,15.003 13.098,15.003 C 12.499,15.003 11.999,14.805 11.602,14.607 L 11.404,14.508 L 12.204,13.008 L 12.504,13.206 C 12.603,13.305 12.901,13.404 13.201,13.404 C 14.001,13.404 14.801,13.005 14.9,12.705 L 14.999,12.405 L 16.596,13.103 L 16.397,13.301 L 16.397,13.301 M 13.897,7.801 " style="fill: #ffbc00; fill-opacity: 1.0; stroke: none" visibility="hidden"><set attributeName="visibility" attributeType="CSS" to="visible" begin="0s; loop.end" fill="none"/><animateTransform attributeName="transform" type="translate" additive="replace" begin="0s; loop.end" dur="16.4s" repeatCount="1" fill="none" from="0.898 -1.198" to="0.898 -1.198" calcMode="discrete"/><animateTransform attributeName="transform" type="translate" additive="sum" begin="0s; loop.end" dur="16.4s" repeatCount="1" fill="none" from="-13.297 -11.2005" to="-13.297 -11.2005" calcMode="discrete"/></path></g></g><g id="id01120ac6aa775c92e8715e27" visibility="hidden"><set attributeName="visibility" attributeType="CSS" to="visible" begin="0s; loop.end" fill="none"/><animateTransform attributeName="transform" type="translate" additive="replace" begin="0s; loop.end" dur="16.4s" repeatCount="1" fill="none" from="14.495 -0.044" to="14.495 -0.044" calcMode="discrete"/><animateTransform attributeName="transform" type="translate" additive="sum" begin="0s; loop.end" dur="16.4s" repeatCount="1" fill="none" from="-0.0 -0.0" to="-0.0 -0.0" calcMode="discrete"/><path id="idf215c8eb9666c14d80d41a39" d="M 123.5,7.5 L 116.5,7.5 C 115,7.5 113.803,8.599 113.803,9.996 L 113.803,14.596 C 113.803,15.993 115,17.091 116.5,17.091 L 123.5,17.091 C 125,17.091 126.197,15.992 126.197,14.595 L 126.197,9.995 C 126.197,8.695 125,7.497 123.5,7.497 L 123.5,7.497 M 123.303,13.997 C 123.303,14.497 122.903,14.797 122.403,14.797 L 117.503,14.797 C 117.003,14.797 116.603,14.4 116.603,14 L 116.603,10.603 C 116.603,10.103 117.003,9.706 117.503,9.706 L 122.403,9.706 C 122.903,9.706 123.303,10.105 123.303,10.605 L 123.303,14.004 L 123.303,14.004 M 138,7.604 L 138,14.004 L 133.101,8.504 C 132.503,7.705 131.503,7.606 131.204,7.507 L 131.204,7.507 L 128.204,7.507 L 128.204,17.007 L 131.204,17.007 L 131.204,10.608 C 132.103,11.608 135.302,15.307 136.201,16.106 C 137.4,17.106 138.099,17.106 138.099,17.106 L 138.099,17.106 L 140.998,17.106 L 140.998,7.606 L 137.998,7.606 L 137.998,7.606 M 52.399,14.106 L 47.5,8.606 C 46.903,7.807 45.903,7.708 45.605,7.609 L 45.605,7.609 L 42.605,7.609 L 42.605,17.109 L 45.605,17.109 L 45.605,10.71 C 46.504,11.71 49.702,15.409 50.601,16.208 C 51.801,17.208 52.501,17.208 52.501,17.208 L 52.501,17.208 L 55.4,17.208 L 55.4,7.608 L 52.4,7.608 L 52.4,14.108 L 52.4,14.108 M 57.299,17.107 L 60.299,17.107 L 60.299,7.607 L 57.299,7.607 L 57.299,17.107 L 57.299,17.107 M 89.097,9.908 L 92.997,9.908 L 92.997,17.107 L 95.997,17.107 L 95.997,9.908 L 99.796,9.908 L 99.796,7.61 L 89.096,7.61 L 89.096,9.908 L 89.096,9.908 M 112.195,10.507 C 112.392,10.207 112.592,10.108 112.691,9.708 C 112.99,8.408 111.09,7.71 110.291,7.71 L 108.492,7.71 L 103.893,7.71 L 103.893,7.71 L 100.893,7.71 L 100.893,7.71 L 100.893,10.01 L 100.893,17.208 L 103.893,17.208 L 103.893,9.908 L 108.992,9.908 L 106.193,13.007 L 109.89,17.107 L 113.587,17.107 L 109.89,13.007 L 112.189,10.507 L 112.189,10.507 M 82.689,7.607 L 82.689,7.607 L 82.689,7.607 L 77.689,17.107 L 80.886,17.207 L 84.286,10.707 L 87.686,17.207 L 90.883,17.107 L 85.883,7.607 L 82.686,7.607 L 82.686,7.607 M 33.987,7.607 L 33.987,7.607 L 33.987,7.607 L 28.987,17.107 L 32.187,17.207 L 35.586,10.707 L 38.985,17.207 L 42.185,17.107 L 37.185,7.607 L 33.985,7.607 L 33.985,7.607 M 74.384,7.607 L 74.384,7.607 C 74.085,7.607 73.388,7.706 72.888,8.404 L 69.789,13.103 L 66.69,8.404 C 66.29,7.706 65.593,7.607 65.294,7.607 L 65.294,7.607 L 62.294,7.607 L 62.294,17.106 L 65.294,17.106 L 65.294,10.907 L 69.194,17.106 L 69.694,17.106 L 69.793,17.106 L 70.293,17.106 L 74.293,10.806 L 74.293,17.106 L 77.293,17.106 L 77.293,7.607 L 74.494,7.607 C 74.593,7.607 74.593,7.607 74.396,7.607 L 74.396,7.607 M 123.494,7.508 " style="fill: #ffffff; fill-opacity: 1.0; stroke: none" visibility="hidden"><set attributeName="visibility" attributeType="CSS" to="visible" begin="0s; loop.end" fill="none"/><animateTransform attributeName="transform" type="translate" additive="replace" begin="0s; loop.end" dur="16.4s" repeatCount="1" fill="none" from="0.0 0.0" to="0.0 0.0" calcMode="discrete"/><animateTransform attributeName="transform" type="translate" additive="sum" begin="0s; loop.end" dur="16.4s" repeatCount="1" fill="none" from="-84.9945 -12.3535" to="-84.9945 -12.3535" calcMode="discrete"/></path><path id="idd60e53c75e05cded10e83da7" d="M 123.5,7.5 L 116.5,7.5 C 115,7.5 113.803,8.599 113.803,9.996 L 113.803,14.596 C 113.803,15.993 115,17.091 116.5,17.091 L 123.5,17.091 C 125,17.091 126.197,15.992 126.197,14.595 L 126.197,9.995 C 126.197,8.695 125,7.497 123.5,7.497 L 123.5,7.497 M 123.303,13.997 C 123.303,14.497 122.903,14.797 122.403,14.797 L 117.503,14.797 C 117.003,14.797 116.603,14.4 116.603,14 L 116.603,10.603 C 116.603,10.103 117.003,9.706 117.503,9.706 L 122.403,9.706 C 122.903,9.706 123.303,10.105 123.303,10.605 L 123.303,14.004 L 123.303,14.004 M 138,7.604 L 138,14.004 L 133.101,8.504 C 132.503,7.705 131.503,7.606 131.204,7.507 L 131.204,7.507 L 128.204,7.507 L 128.204,17.007 L 131.204,17.007 L 131.204,10.608 C 132.103,11.608 135.302,15.307 136.201,16.106 C 137.4,17.106 138.099,17.106 138.099,17.106 L 138.099,17.106 L 140.998,17.106 L 140.998,7.606 L 137.998,7.606 L 137.998,7.606 M 52.399,14.106 L 47.5,8.606 C 46.903,7.807 45.903,7.708 45.605,7.609 L 45.605,7.609 L 42.605,7.609 L 42.605,17.109 L 45.605,17.109 L 45.605,10.71 C 46.504,11.71 49.702,15.409 50.601,16.208 C 51.801,17.208 52.501,17.208 52.501,17.208 L 52.501,17.208 L 55.4,17.208 L 55.4,7.608 L 52.4,7.608 L 52.4,14.108 L 52.4,14.108 M 57.299,17.107 L 60.299,17.107 L 60.299,7.607 L 57.299,7.607 L 57.299,17.107 L 57.299,17.107 M 89.097,9.908 L 92.997,9.908 L 92.997,17.107 L 95.997,17.107 L 95.997,9.908 L 99.796,9.908 L 99.796,7.61 L 89.096,7.61 L 89.096,9.908 L 89.096,9.908 M 112.195,10.507 C 112.392,10.207 112.592,10.108 112.691,9.708 C 112.99,8.408 111.09,7.71 110.291,7.71 L 108.492,7.71 L 103.893,7.71 L 103.893,7.71 L 100.893,7.71 L 100.893,7.71 L 100.893,10.01 L 100.893,17.208 L 103.893,17.208 L 103.893,9.908 L 108.992,9.908 L 106.193,13.007 L 109.89,17.107 L 113.587,17.107 L 109.89,13.007 L 112.189,10.507 L 112.189,10.507 M 82.689,7.607 L 82.689,7.607 L 82.689,7.607 L 77.689,17.107 L 80.886,17.207 L 84.286,10.707 L 87.686,17.207 L 90.883,17.107 L 85.883,7.607 L 82.686,7.607 L 82.686,7.607 M 33.987,7.607 L 33.987,7.607 L 33.987,7.607 L 28.987,17.107 L 32.187,17.207 L 35.586,10.707 L 38.985,17.207 L 42.185,17.107 L 37.185,7.607 L 33.985,7.607 L 33.985,7.607 M 74.384,7.607 L 74.384,7.607 C 74.085,7.607 73.388,7.706 72.888,8.404 L 69.789,13.103 L 66.69,8.404 C 66.29,7.706 65.593,7.607 65.294,7.607 L 65.294,7.607 L 62.294,7.607 L 62.294,17.106 L 65.294,17.106 L 65.294,10.907 L 69.194,17.106 L 69.694,17.106 L 69.793,17.106 L 70.293,17.106 L 74.293,10.806 L 74.293,17.106 L 77.293,17.106 L 77.293,7.607 L 74.494,7.607 C 74.593,7.607 74.593,7.607 74.396,7.607 L 74.396,7.607 M 123.494,7.508 " style="fill: none; stroke: #000000; stroke-width: 0.5; stroke-opacity: 1.0" visibility="hidden"><set attributeName="visibility" attributeType="CSS" to="visible" begin="0s; loop.end" fill="none"/><animateTransform attributeName="transform" type="translate" additive="replace" begin="0s; loop.end" dur="16.4s" repeatCount="1" fill="none" from="0.0 0.0" to="0.0 0.0" calcMode="discrete"/><animateTransform attributeName="transform" type="translate" additive="sum" begin="0s; loop.end" dur="16.4s" repeatCount="1" fill="none" from="-84.9945 -12.3535" to="-84.9945 -12.3535" calcMode="discrete"/></path></g><path id="idca16c81e0e0f80beb901fc9f" d="M 12.399,0.5 C 18.999,0.5 24.296,5.8 24.296,12.399 C 24.296,18.999 18.998,24.297 12.398,24.297 C 5.798,24.297 0.499,18.898 0.499,12.398 C 0.499,5.898 5.799,0.499 12.398,0.499 M 12.398,-0.001 C 5.599,-0.001 -0,5.598 -0,12.397 C -0,19.196 5.599,24.796 12.398,24.796 C 19.197,24.796 24.796,19.196 24.796,12.398 C 24.796,5.599 19.197,-0.001 12.397,-0.001 L 12.397,-0.001 L 12.397,-0.001 M 12.397,0.499 " style="fill: #000000; fill-opacity: 1.0; stroke: none" visibility="hidden"><set attributeName="visibility" attributeType="CSS" to="visible" begin="0s; loop.end" fill="none"/><animateTransform attributeName="transform" type="translate" additive="replace" begin="0s; loop.end" dur="16.4s" repeatCount="1" fill="none" from="-58.099 0.0" to="-58.099 0.0" calcMode="discrete"/><animateTransform attributeName="transform" type="translate" additive="sum" begin="0s; loop.end" dur="16.4s" repeatCount="1" fill="none" from="-12.3995 -12.398" to="-12.3995 -12.398" calcMode="discrete"/></path></g></g></g><script><![CDATA[
      var document = null;
      var root = null;
      var scheduler = null;
      var schedulerEnabled = ((navigator.userAgent.indexOf('Safari') != -1) && (navigator.userAgent.indexOf('Chrome') == -1)) ||
                             (navigator.userAgent.match(/(iPod|iPhone|iPad)/) && navigator.userAgent.match(/AppleWebKit/) && !navigator.userAgent.match('CriOS'));
      var currentEvent = 0;
      var previousTime = 0;
      var nextTime = 0;

      function initialize(event)
      {
         document = event.target.ownerDocument;
         root = document.documentElement;
         if (schedulerEnabled && events.length > 0) {
             var event = events[currentEvent];
             while (currentEvent < events.length && events[currentEvent]["time"] == 0) { 
                 processEvent();
                 currentEvent += 1;
             }
             if (currentEvent < events.length) {
                 var time = events[currentEvent]["time"];
                 nextTime = time;
                 scheduler = setTimeout(processSchedule, time - previousTime);
             }
         }
      };

      function freeze()
      {
         root.pauseAnimations();
      };

      function processSchedule()
      {
         if (currentEvent < events.length) {
             var event = events[currentEvent];
             previousTime = nextTime;
             while (currentEvent < events.length && events[currentEvent]["time"] == nextTime) { 
                 processEvent();
                 currentEvent += 1;
             }
             if (currentEvent < events.length) {
                 var time = events[currentEvent]["time"];
                 nextTime = time;
                 scheduler = setTimeout(processSchedule, time - previousTime);
             }
         }
      };

      function processEvent()
      {
         var event = events[currentEvent];
         if ("audio_start" in event) { 
             event = event["audio_start"];
             var id = event["id"];
             var audio = document.getElementById(id);
             if (audio != undefined)
                 audio.play();
         }
         else if ("audio_stop" in event) { 
             event = event["audio_stop"];
             var id = event["id"];
             var audio = document.getElementById(id);
             if (audio != undefined) {
                 audio.pause();
                 audio.currentTime = 0;
             }
         }
         else if ("pause" in event) { 
             event = event["pause"];
             freeze();
         }
      };

    var events = [{"time": 16049,"pause": {}}]
]]></script><rect id="looper" x="0" y="0" width="1" height="1" style="fill: none; stroke: none"><set id="loop" attributeName="x" to="0" begin="0s; loop.end" dur="16.4s" fill="freeze"/></rect></svg>