<?xml version="1.0" encoding="utf-8"?>
<!-- Generator: Adobe Illustrator 19.1.0, SVG Export Plug-In . SVG Version: 6.00 Build 0)  -->
<svg version="1.1" id="Layer_1" xmlns="http://www.w3.org/2000/svg" xmlns:xlink="http://www.w3.org/1999/xlink" x="0px" y="0px"
	 viewBox="-214 333.2 165.9 175.7" style="enable-background:new -214 333.2 165.9 175.7;" xml:space="preserve">
<style type="text/css">
	.st0{fill:#B3B3B3;}
	.st1{fill:#A6120D;}
	.st2{fill:#DD1B16;}
	.st3{fill:#F2F2F2;}
</style>
<g>
	<polygon class="st0" points="-131.4,333.2 -214,362.3 -201,470.6 -131.3,508.9 -61.2,470.1 -48.1,361.8 	"/>
	<polygon class="st1" points="-56.4,368 -131.5,342.4 -131.5,499.8 -68.6,464.9 	"/>
	<polygon class="st2" points="-204.8,368.5 -193.6,465.4 -131.6,499.8 -131.6,342.4 	"/>
</g>
<g>
	<path class="st3" d="M-116,408.9l-15.6,7.3H-148l-7.7,19.3l-14.4,0.3l38.5-85.6L-116,408.9z M-117.5,405.2l-14-27.6l-11.4,27.2
		h11.3L-117.5,405.2z"/>
	<polygon class="st0" points="-131.6,350.1 -131.5,377.6 -118.4,404.7 -131.5,404.7 -131.6,416.1 -113.5,416.1 -105.1,435.6 
		-91.4,435.9 	"/>
</g>
<g>
	<path class="st3" d="M-147.2,465.3h8.4v3.2H-154l7.9-9.5c0.8-0.9,1.4-1.8,1.9-2.5c0.5-0.7,0.9-1.3,1.2-1.7c0.6-0.9,0.8-1.7,0.8-2.5
		c0-1.1-0.4-1.9-1.1-2.7c-0.7-0.7-1.7-1.1-2.8-1.1c-2.3,0-3.6,1.4-3.9,4.1h-3.4c0.5-4.8,3-7.2,7.2-7.2c2.1,0,3.8,0.7,5.2,2
		c1.4,1.3,2.1,2.9,2.1,4.9c0,1.2-0.3,2.4-1,3.6c-0.3,0.6-0.8,1.3-1.5,2.2c-0.6,0.8-1.5,1.8-2.4,3L-147.2,465.3z"/>
	<path class="st0" d="M-125.7,457.1c0-3.6,0.8-6.5,2.5-8.6c1.5-1.9,3.3-2.9,5.5-2.9c2.1,0,4,1,5.5,2.9c1.7,2.2,2.5,5.1,2.5,8.8
		c0,3.7-0.8,6.6-2.5,8.8c-1.5,1.9-3.3,2.9-5.5,2.9s-4-1-5.5-2.9C-124.8,463.8-125.7,460.9-125.7,457.1z M-122.3,457.1
		c0,2.5,0.4,4.6,1.3,6.3c0.9,1.6,2,2.5,3.3,2.5c1.3,0,2.5-0.8,3.3-2.5c0.9-1.6,1.3-3.7,1.3-6.1c0-2.5-0.4-4.5-1.3-6.2
		c-0.9-1.6-2-2.4-3.3-2.4c-1.3,0-2.4,0.8-3.3,2.4C-121.9,452.7-122.3,454.7-122.3,457.1z"/>
	<path class="st3" d="M-131.6,464.9c-0.6,0-1,0.2-1.4,0.6c-0.4,0.4-0.6,0.9-0.6,1.4c0,0.6,0.2,1.1,0.6,1.5c0.4,0.4,0.9,0.6,1.5,0.6
		c0,0,0,0,0,0L-131.6,464.9C-131.6,464.9-131.6,464.9-131.6,464.9z"/>
	<path class="st0" d="M-129.5,466.9c0-0.6-0.2-1-0.6-1.4c-0.4-0.4-0.9-0.6-1.4-0.6v4.1c0.5,0,1-0.2,1.4-0.6
		C-129.7,468-129.5,467.5-129.5,466.9z"/>
</g>
</svg>
