<?xml version="1.0" encoding="utf-8"?>
<!-- Generator: Adobe Illustrator 19.1.0, SVG Export Plug-In . SVG Version: 6.00 Build 0)  -->
<svg version="1.1"
	 id="svg2" xmlns:rdf="http://www.w3.org/1999/02/22-rdf-syntax-ns#" xmlns:cc="http://creativecommons.org/ns#" xmlns:svg="http://www.w3.org/2000/svg" xmlns:dc="http://purl.org/dc/elements/1.1/"
	 xmlns="http://www.w3.org/2000/svg" xmlns:xlink="http://www.w3.org/1999/xlink" x="0px" y="0px"
	 viewBox="151.6 340.3 130.2 162.2" style="enable-background:new 151.6 340.3 130.2 162.2;" xml:space="preserve">
<style type="text/css">
	.st0{fill:#002A41;stroke:#848484;}
	.st1{fill:#0071B5;stroke:#848484;}
</style>
<g id="Page_1" transform="matrix(0.17893165,0,0,0.17893165,-129.37356,1149.0013)">
	<g id="BackBone.JS">
		<path id="Path" class="st0" d="M1573.1-4514.8v485l361,205.8v-139.9l-241.5-137.7v-216.2l241.5,137.7V-4309L1573.1-4514.8z"/>
		<path id="path2996" class="st1" d="M2295.1-4514.8v485l-361,205.8v-139.9l241.5-137.7v-216.2l-241.5,137.7V-4309L2295.1-4514.8z"
			/>
		<path id="path2998" class="st1" d="M1573.1-3618v-485l361-205.8v139.9l-241.5,137.7v205.2l241.5-137.7v139.9L1573.1-3618z"/>
		<path id="path3000" class="st0" d="M2295.1-3618v-485l-361-205.8v139.9l241.5,137.7v205.2l-241.5-137.7v139.9L2295.1-3618z"/>
	</g>
</g>
</svg>
