<?xml version="1.0" encoding="utf-8"?>
<!-- Generator: Adobe Illustrator 19.1.0, SVG Export Plug-In . SVG Version: 6.00 Build 0)  -->
<svg version="1.1" id="Layer_1" xmlns="http://www.w3.org/2000/svg" xmlns:xlink="http://www.w3.org/1999/xlink" x="0px" y="0px"
	 viewBox="-41 164.9 512 512" style="enable-background:new -41 164.9 512 512;" xml:space="preserve">
<style type="text/css">
	.st0{fill:#E44D26;}
	.st1{fill:#F16529;}
	.st2{fill:#EBEBEB;}
	.st3{fill:#FFFFFF;}
</style>
<title>HTML5 Logo</title>
<polygon class="st0" points="66.6,635.8 33.6,265.5 396.4,265.5 363.3,635.7 214.8,676.9 "/>
<polygon class="st1" points="215,645.4 335,612.1 363.3,295.8 215,295.8 "/>
<polygon class="st2" points="215,433.1 154.9,433.1 150.8,386.6 215,386.6 215,341.2 214.8,341.2 101.1,341.2 102.2,353.4 
	113.4,478.5 215,478.5 "/>
<polygon class="st2" points="215,551 214.8,551.1 164.2,537.4 161,501.2 136.4,501.2 115.4,501.2 121.8,572.5 214.8,598.3 
	215,598.3 "/>
<path class="st3" d="M67.4,164.9h23.1v22.8h21.1v-22.8h23.1v69h-23.1v-23.1H90.5v23.1H67.4L67.4,164.9L67.4,164.9z"/>
<path class="st3" d="M165,187.8h-20.3v-22.9h63.7v22.9h-20.3v46.1H165L165,187.8L165,187.8z"/>
<path class="st3" d="M218.5,164.9h24.1l14.8,24.3l14.8-24.3h24.1v69h-23v-34.2l-15.9,24.5H257l-15.9-24.5v34.2h-22.6V164.9z"/>
<path class="st3" d="M307.7,164.9h23.1v46.2h32.5v22.8h-55.5V164.9z"/>
<polygon class="st3" points="214.8,433.1 214.8,478.5 270.8,478.5 265.5,537.4 214.8,551.1 214.8,598.3 307.9,572.5 308.6,564.9 
	319.3,445.3 320.4,433.1 308.2,433.1 "/>
<polygon class="st3" points="214.8,341.2 214.8,369.4 214.8,386.5 214.8,386.6 324.4,386.6 324.4,386.6 324.5,386.6 325.4,376.4 
	327.5,353.4 328.6,341.2 "/>
</svg>
