<?xml version="1.0" encoding="utf-8"?>
<!-- Generator: Adobe Illustrator 19.1.0, SVG Export Plug-In . SVG Version: 6.00 Build 0)  -->
<svg version="1.1" id="Layer_1" xmlns="http://www.w3.org/2000/svg" xmlns:xlink="http://www.w3.org/1999/xlink" x="0px" y="0px"
	 viewBox="0 0 418.3 62.1" style="enable-background:new 0 0 418.3 62.1;" xml:space="preserve">
<style type="text/css">
	.st0{fill:#FFFFFF;}
</style>
<g>
	<path d="M115.1,7.1h13.3v5.4h-6.2v2.3h5.6V20h-5.6v7.1h-7.2V7.1z"/>
	<path d="M148.8,24.6c-2,1.9-4.7,3-7.6,3c-3,0-5.6-1.1-7.6-3c-2-1.9-3-4.5-3-7.4c0-3,1.1-5.5,3-7.5c2-2,4.7-3,7.6-3
		c3,0,5.6,1.1,7.6,3c2,1.9,3,4.5,3,7.5C151.9,20.1,150.8,22.6,148.8,24.6z M144.6,17.1c0-2.3-1.4-3.8-3.3-3.8s-3.4,1.5-3.4,3.8
		s1.4,3.8,3.4,3.8S144.6,19.5,144.6,17.1z"/>
	<path d="M155.3,7.1h9c5.3,0,8.1,2.5,8.1,6.7c0,2.8-1.5,4.8-3.9,5.1l5.3,8.1h-8l-3.5-6.6v6.6h-7V7.1z M162.3,16.2h1.1
		c1.4,0,2.1-0.7,2.1-1.9s-0.7-2-2.1-2h-1.1V16.2z"/>
	<path d="M186.7,20.3l-1.5,6.8H179l-5.8-20h7.2l1.6,8.8c0.1,0.9,0.4,2.1,0.4,3.9h0.2c0.1-1.6,0.3-2.7,0.5-3.4l1.9-9.3h5.1l1.9,9.3
		c0.1,0.7,0.4,1.8,0.5,3.4h0.2c0.1-1.8,0.3-3.1,0.4-3.9l1.6-8.8h7.2l-5.8,20h-6.3l-1.5-6.8c-0.2-0.9-0.5-2-0.6-3.3h-0.3
		C187.2,18.3,186.9,19.4,186.7,20.3z"/>
	<path d="M207.2,7.1h8l7,20h-7.7l-0.6-2.5h-5.4l-0.6,2.5h-7.7L207.2,7.1z M212.6,19.8l-0.6-2.3c-0.3-1.1-0.7-2.5-0.8-4.4h-0.1
		c-0.1,1.9-0.5,3.3-0.8,4.4l-0.6,2.3H212.6z"/>
	<path d="M223.7,7.1h9c5.3,0,8.1,2.5,8.1,6.7c0,2.8-1.5,4.8-3.9,5.1l5.3,8.1h-8l-3.5-6.6v6.6h-7V7.1z M230.7,16.2h1.1
		c1.4,0,2.1-0.7,2.1-1.9s-0.7-2-2.1-2h-1.1V16.2z"/>
	<path d="M244.1,7.1h5.8c3.5,0,6.1,0.3,7.9,1.3c3.4,1.7,5.4,4.9,5.4,8.7c0,3.3-1.5,6.2-4.1,8c-2.6,1.8-5.7,2-9.7,2h-5.3V7.1z
		 M255.9,17.1c0-2.6-1.5-3.9-4.4-3.9c-0.1,0-0.2,0-0.3,0V21C254.4,20.9,255.9,19.8,255.9,17.1z"/>
	<path d="M281,7.1h8l7,20h-7.7l-0.6-2.5h-5.4l-0.6,2.5h-7.7L281,7.1z M286.4,19.8l-0.6-2.3c-0.3-1.1-0.7-2.5-0.8-4.4h-0.1
		c-0.1,1.9-0.5,3.3-0.8,4.4l-0.6,2.3H286.4z"/>
	<path d="M297.4,7.1h5.8c3.5,0,6.1,0.3,7.9,1.3c3.4,1.7,5.4,4.9,5.4,8.7c0,3.3-1.5,6.2-4.1,8c-2.6,1.8-5.7,2-9.7,2h-5.3V7.1z
		 M309.2,17.1c0-2.6-1.5-3.9-4.4-3.9c-0.1,0-0.2,0-0.3,0V21C307.7,20.9,309.2,19.8,309.2,17.1z"/>
	<path d="M316.5,7.1h7.8l2.1,7.2c0.3,1.1,0.8,2.6,1,4.7h0.1c0.3-1.8,0.7-3.3,1-4.5l2.2-7.4h7.6l-7.6,20h-6.7L316.5,7.1z"/>
	<path d="M343.7,7.1h8l7,20h-7.7l-0.6-2.5h-5.4l-0.6,2.5h-7.7L343.7,7.1z M349,19.8l-0.6-2.3c-0.3-1.1-0.7-2.5-0.8-4.4h-0.1
		c-0.1,1.9-0.5,3.3-0.8,4.4l-0.6,2.3H349z"/>
	<path d="M360.1,7.1h7l6.2,10.4c-0.2-1.3-0.2-2.3-0.2-3.2c0-0.2,0-0.4,0-0.6V7.1h6.9v20H373l-6.1-10.4c0.2,1.3,0.2,2.3,0.2,3.2v7.2
		h-6.9V7.1z"/>
	<path d="M394.6,13.2c-2.3,0-3.9,1.5-3.9,4c0,2.3,1.4,3.9,3.8,3.9c1.5,0,2.8-0.7,4.4-1.8l-0.2,7.5c-1.6,0.6-3.1,0.9-4.7,0.9
		c-2.4,0-4.7-0.7-6.5-2.1c-2.7-2-4.1-4.9-4.1-8.4c0-6.1,4.5-10.5,10.7-10.5c1.6,0,3.2,0.3,4.7,1v7.4
		C397.5,13.8,396.1,13.2,394.6,13.2z"/>
	<path d="M402.3,7.1h13.3v5.4h-6.3v1.9h5.7v5.1h-5.7v2.1h6.5v5.4h-13.5V7.1z"/>
</g>
<g>
	<path d="M142.6,45.9h-7.5l-2,4.3h-2.9l8.7-18.7l8.4,18.7h-2.9L142.6,45.9z M141.6,43.4l-2.6-6l-2.7,6H141.6z"/>
	<path d="M150.8,50.2V32.6h3.7c1.8,0,3.2,0.2,4.2,0.5c1.1,0.3,2.1,0.9,3,1.7c1.8,1.7,2.7,3.8,2.7,6.5c0,2.7-0.9,4.9-2.8,6.6
		c-0.9,0.8-1.9,1.4-3,1.7c-1,0.3-2.4,0.5-4.1,0.5H150.8z M153.5,47.7h1.2c1.2,0,2.2-0.1,3-0.4c0.8-0.3,1.5-0.7,2.1-1.3
		c1.3-1.2,2-2.7,2-4.7c0-1.9-0.6-3.5-1.9-4.7c-1.2-1.1-2.9-1.6-5.1-1.6h-1.2V47.7z"/>
	<path d="M169.2,32.6l4.9,12.2l4.9-12.2h2.9L174,51.5l-7.7-18.9H169.2z"/>
	<path d="M195,35.1H188v4.2h6.8v2.5H188v5.9h7.1v2.5h-9.7V32.6h9.7V35.1z"/>
	<path d="M199.7,50.2V31.4l12.8,13.4V32.6h2.7v18.7l-12.8-13.4v12.3H199.7z"/>
	<path d="M225.5,35.1v15.1h-2.7V35.1h-4v-2.5h10.7v2.5H225.5z"/>
	<path d="M235.8,32.6v10.6c0,1.5,0.2,2.6,0.7,3.3c0.7,1,1.8,1.5,3.1,1.5c1.3,0,2.4-0.5,3.1-1.5c0.5-0.7,0.7-1.8,0.7-3.3V32.6h2.7V44
		c0,1.9-0.6,3.4-1.7,4.6c-1.3,1.3-2.9,2-4.8,2c-1.9,0-3.5-0.7-4.8-2c-1.2-1.2-1.7-2.7-1.7-4.6V32.6H235.8z"/>
	<path d="M257.5,42.7l5.4,7.5h-3.2l-5-7.2h-0.5v7.2h-2.7V32.6h3.1c2.3,0,4,0.4,5,1.3c1.1,1,1.7,2.3,1.7,3.9c0,1.2-0.4,2.3-1.1,3.2
		C259.6,41.9,258.7,42.5,257.5,42.7z M254.2,40.7h0.8c2.5,0,3.8-1,3.8-2.9c0-1.8-1.2-2.7-3.7-2.7h-0.9V40.7z"/>
	<path d="M276.5,35.1h-7.1v4.2h6.8v2.5h-6.8v5.9h7.1v2.5h-9.7V32.6h9.7V35.1z"/>
	<path d="M292.3,32.6v15.1h5.2v2.5h-7.8V32.6H292.3z"/>
	<path d="M310.9,35.1h-7.1v4.2h6.8v2.5h-6.8v5.9h7.1v2.5h-9.7V32.6h9.7V35.1z"/>
	<path d="M326,45.9h-7.5l-2,4.3h-2.9l8.7-18.7l8.4,18.7h-2.9L326,45.9z M324.9,43.4l-2.6-6l-2.7,6H324.9z"/>
	<path d="M340.1,42.7l5.4,7.5h-3.2l-5-7.2h-0.5v7.2h-2.7V32.6h3.1c2.3,0,4,0.4,5,1.3c1.1,1,1.7,2.3,1.7,3.9c0,1.2-0.4,2.3-1.1,3.2
		C342.2,41.9,341.3,42.5,340.1,42.7z M336.8,40.7h0.8c2.5,0,3.8-1,3.8-2.9c0-1.8-1.2-2.7-3.7-2.7h-0.9V40.7z"/>
	<path d="M349.4,50.2V31.4l12.8,13.4V32.6h2.7v18.7l-12.8-13.4v12.3H349.4z"/>
	<path d="M373,32.6v17.6h-2.7V32.6H373z"/>
	<path d="M378.4,50.2V31.4l12.8,13.4V32.6h2.7v18.7l-12.8-13.4v12.3H378.4z"/>
	<path d="M408.6,41.1h7.3v0.6c0,1.3-0.2,2.5-0.5,3.5c-0.3,0.9-0.8,1.8-1.5,2.6c-1.6,1.8-3.7,2.8-6.2,2.8c-2.5,0-4.6-0.9-6.3-2.7
		c-1.8-1.8-2.6-3.9-2.6-6.4c0-2.6,0.9-4.7,2.7-6.5c1.8-1.8,4-2.7,6.5-2.7c1.4,0,2.7,0.3,3.9,0.8c1.1,0.6,2.3,1.5,3.4,2.7l-1.9,1.8
		c-1.4-1.9-3.2-2.9-5.3-2.9c-1.9,0-3.4,0.6-4.7,1.9c-1.3,1.3-1.9,2.8-1.9,4.7c0,2,0.7,3.6,2.1,4.8c1.3,1.2,2.7,1.8,4.3,1.8
		c1.3,0,2.5-0.4,3.5-1.3c1-0.9,1.6-2,1.7-3.2h-4.4V41.1z"/>
</g>
<g>
	<g>
		<polygon class="st0" points="59.3,57.8 103.2,56.5 109.6,56.3 122.2,52.4 112.3,38.7 106.8,28.6 101.1,23.9 91.7,12.2 84.5,23 
			78,19.9 72.1,36.6 		"/>
		<path d="M54.8,60.4l15-24.8l6.8-19.1l7,3.3l7.8-11.8l11.4,14.1l5.8,4.8l5.7,10.4l11.8,16.3L110,58.8L54.8,60.4z M79.4,23.3
			l-5.1,14.4L63.7,55.2l45.5-1.3l9-2.8l-8-11l-5.4-9.9l-5.4-4.5l-7.5-9.3l-6.5,9.8L79.4,23.3z"/>
	</g>
	<polygon points="96.9,57.8 111.3,55.3 117.1,54.9 122.6,54.4 110.9,38.8 106.8,29 90.6,12.2 95.9,28.4 92.7,42.3 	"/>
	<g>
		<polygon class="st0" points="3.5,54.2 22,55.2 31.5,59.6 79.1,59.6 61.1,40.6 60.4,30.7 38.5,4.2 29.8,18.2 25.5,13.4 18.6,29.9 
			14.6,24.5 		"/>
		<path d="M84.8,62.1H30.9l-9.6-4.5L0,56.5l13.8-37.1L18,25l6.7-16l4.8,5.2L38.2,0l24.6,29.7l0.7,9.9L84.8,62.1z M32,57.2h41.3
			L58.7,41.7l-0.8-10L38.7,8.4l-8.5,13.8l-4-4.3l-7.1,17l-3.9-5.3L7,51.9l15.6,0.8L32,57.2z"/>
	</g>
	<polygon points="44.9,59.6 79.1,59.6 58.9,39.6 59.9,31.2 38.5,4.2 40.7,27.5 37.4,40.8 	"/>
</g>
</svg>
